<?xml version="1.0" standalone="no"?>
<!DOCTYPE svg PUBLIC "-//W3C//DTD SVG 1.1//EN" "http://www.w3.org/Graphics/SVG/1.1/DTD/svg11.dtd" >
<svg xmlns="http://www.w3.org/2000/svg" xmlns:xlink="http://www.w3.org/1999/xlink" version="1.1">
<metadata>
Created by FontForge 20170731 at Fri Apr 19 00:30:36 2019
 By Aleksey,,,
</metadata>
<defs>
<font id="KoskoBold-Bold" horiz-adv-x="340" >
  <font-face 
    font-family="Kosko Bold"
    font-weight="700"
    font-stretch="normal"
    units-per-em="1000"
    panose-1="2 0 5 3 0 0 0 0 0 0"
    ascent="800"
    descent="-200"
    x-height="533"
    cap-height="777"
    bbox="33 -319 1053 938"
    underline-thickness="50"
    underline-position="-200"
    unicode-range="U+000D-0491"
  />
<missing-glyph horiz-adv-x="364" 
d="M33 0v666h265v-666h-265zM66 33h199v600h-199v-600z" />
    <glyph glyph-name=".notdef" horiz-adv-x="364" 
d="M33 0v666h265v-666h-265zM66 33h199v600h-199v-600z" />
    <glyph glyph-name=".null" 
 />
    <glyph glyph-name=".null" 
 />
    <glyph glyph-name="nonmarkingreturn" horiz-adv-x="333" 
 />
    <glyph glyph-name="CR" unicode="&#xd;" 
 />
    <glyph glyph-name="space" unicode=" " 
 />
    <glyph glyph-name="exclam" unicode="!" horiz-adv-x="320" 
d="M66 76q11 14 20.5 18t28.5 4q35 0 50.5 -19t15.5 -62q0 -28 -3.5 -38.5t-17.5 -22.5q-22 -19 -46 -19q-28 0 -47.5 23t-19.5 59q0 34 19 57zM181 809q15 7 31 7q39 0 57 -45q6 -15 6 -30q0 -20 -7 -61q-26 -164 -41 -328q-8 -90 -23 -118t-58 -28q-26 0 -45 23
q-10 12 -13.5 20t-3.5 26q0 17 3 57q8 120 29 276t33 176q8 15 32 25z" />
    <glyph glyph-name="quotedbl" unicode="&#x22;" horiz-adv-x="432" 
d="M81 855q16 15 41 15q29 0 48 -19q11 -11 14.5 -20t3.5 -29v-14q0 -38 -6 -98q-3 -34 -7.5 -46.5t-17.5 -23.5q-20 -17 -40 -17q-24 0 -49 25l-26 26l4 75q4 62 10.5 85.5t24.5 40.5zM284 866q16 11 32 11q21 0 44 -18q16 -13 21.5 -28t5.5 -47q0 -26 -3 -76
q-4 -68 -8 -83.5t-21 -30.5q-23 -20 -48 -20q-22 0 -40 15t-23 41q-2 10 -2 27q0 42 6.5 107.5t11.5 75.5q6 14 24 26z" />
    <glyph glyph-name="numbersign" unicode="#" horiz-adv-x="737" 
d="M417 325q-3 3 -37 5q-6 1 -15 1q-19 0 -26 -9.5t-7 -32.5q0 -11 2.5 -14t13.5 -3q2 0 9 0.5t12 0.5q28 2 34 5t10 21q7 23 4 26zM279 560q19 14 38 14q24 0 45 -21q20 -20 20 -40q0 -9 -1 -15q0 -3 -0.5 -8t-0.5 -7q0 -16 8.5 -20t36.5 -4h3q18 0 23 5.5t13 36.5
q10 35 28 54.5t41 19.5q21 0 42 -18q13 -12 16.5 -22.5t3.5 -41.5v-45l31 -4q26 -3 38.5 -12t21.5 -31q5 -13 5 -21q0 -10 -6 -23q-18 -43 -95 -43q-29 0 -35 -3t-9 -19q-2 -8 -2 -18q0 -9 6.5 -12.5t28.5 -6.5q29 -4 46 -21.5t17 -40.5q0 -22 -17 -42q-10 -13 -21.5 -17
t-43.5 -6l-48 -3l-6 -26q-2 -7 -12 -47q-4 -17 -25.5 -36t-36.5 -19q-19 0 -38 13t-23 27q-2 10 -2 23t2 39l5 42h-78l-13 -43q-13 -42 -30 -59q-15 -15 -40 -15q-27 0 -47 18q-16 13 -16 32q0 4 2 26l3 41h-28q-36 0 -60 19.5t-24 47.5q0 5 2 15q7 26 25.5 36t64.5 11
q43 2 50.5 5t10.5 19q5 23 5 32q0 11 -5.5 14t-20.5 3q-27 0 -44 18t-17 43t17 45q10 13 21.5 17t41.5 6l47 3l9 35q10 36 27 50z" />
    <glyph glyph-name="dollar" unicode="$" horiz-adv-x="460" 
d="M215 654q9 3 19 3q29 0 48 -19q16 -16 16 -50q0 -24 3.5 -31t21.5 -16q48 -23 48 -65q0 -25 -19 -44q-16 -16 -35 -16q-3 0 -29 2q-9 1 -24 1q-45 0 -45 -23q0 -1 0.5 -3t0.5 -3q1 -14 53 -33q66 -25 103 -68t38 -94q0 -89 -80 -141q-22 -14 -29 -23.5t-10 -29.5
q-6 -33 -12 -42q-6 -11 -24 -21t-32 -10q-4 0 -6 1q-34 10 -47 28.5t-13 53.5q0 19 -5.5 25t-34.5 18q-75 31 -75 82q0 23 19 43q20 20 40 20t58 -19q35 -19 63 -19q21 0 39.5 7.5t18.5 16.5q0 13 -24.5 29.5t-61.5 31.5q-54 20 -77 40q-38 32 -38 95q0 81 58 133
q16 14 21 25t8 38q6 59 45 77z" />
    <glyph glyph-name="percent" unicode="%" horiz-adv-x="1051" 
d="M835 89h-5q-21 0 -38.5 -9.5t-17.5 -20.5q0 -10 18 -25t30 -15q15 0 29.5 16.5t14.5 32.5q0 13 -5.5 16.5t-25.5 4.5zM780 225q21 6 47 6q42 0 70 -14q22 -11 40 -14q24 -5 36 -20.5t22 -52.5q11 -40 11 -74q0 -37 -18 -70q-62 -105 -170 -105q-48 1 -96.5 31.5
t-67.5 73.5q-16 33 -16 70q0 57 38.5 104t103.5 65zM253 421q-11 9 -25 12q-2 1 -6 1q-14 0 -26 -12t-12 -26q0 -13 5.5 -17t23.5 -5h8q23 0 30 6q10 8 10 22q0 12 -8 19zM150 557q33 16 54 16q22 0 71 -13q35 -9 49.5 -17t31.5 -27q42 -46 42 -106q0 -32 -10 -65
q-16 -56 -53 -80.5t-111 -28.5q-4 0 -12 -0.5t-11 -0.5q-47 0 -74.5 14.5t-51.5 50.5q-30 45 -30 96t28 94.5t77 66.5zM783 768q16 8 36 8q27 0 45 -17t18 -44q0 -23 -14.5 -52.5t-62.5 -104.5q-64 -100 -137 -223t-126 -206q-27 -42 -48 -79q-10 -24 -119 -218
q-58 -104 -76 -110q-16 -6 -32 -6q-27 0 -47 17q-20 18 -20 42q0 31 32 85q39 64 73 130q82 151 147 256q222 363 243 397q38 59 56 91q18 28 32 34z" />
    <glyph glyph-name="ampersand" unicode="&#x26;" horiz-adv-x="828" 
d="M398 176q-59 88 -68 88q-11 0 -65 -37t-67 -53q-16 -19 -16 -41q0 -26 24 -47q27 -23 72 -41.5t74 -18.5q30 0 69 17.5t39 30.5q0 7 -62 102zM514 628q-23 19 -46 19q-32 0 -54 -37t-22 -96q0 -55 6 -58h2q14 0 60.5 36t58.5 57q16 30 16 44q0 17 -21 35zM387 770
q31 15 72 15q44 0 86 -16.5t69 -45.5q59 -65 59 -126q0 -35 -19 -84q-19 -46 -48.5 -78t-83.5 -66q-55 -33 -58 -42q0 -6 47.5 -77.5t54.5 -76.5h1q12 0 47 35q37 36 55 46t46 10q30 0 48 -22q19 -24 19 -39q0 -26 -62 -85l-61 -58l25 -29q26 -30 26 -61q0 -26 -18 -43
t-44 -17q-32 0 -61 25l-29 25l-66 -34q-43 -22 -63 -28t-56 -8q-9 -1 -26 -1q-66 0 -149 41q-75 36 -114 87.5t-39 113.5q0 37 15 77q15 41 60 81t138 94q10 6 10 15t-6 33q-7 33 -7 83q0 4 0.5 13t0.5 13q1 44 6 64t21 52q41 86 104 114z" />
    <glyph glyph-name="quotesingle" unicode="'" horiz-adv-x="247" 
d="M95 882q17 16 39 16q21 0 43 -17q25 -22 25 -52q0 -23 -10 -60q-20 -73 -28.5 -90.5t-29.5 -27.5q-20 -9 -28 -9q-10 0 -24 7q-26 11 -33 25q-7 13 -7 41q0 44 16 96.5t37 70.5z" />
    <glyph glyph-name="parenleft" unicode="(" horiz-adv-x="501" 
d="M346 836q16 9 36 9q31 0 53 -20q14 -12 14 -36v-12q-1 -24 -10 -34.5t-53 -44.5q-63 -49 -101 -108.5t-67 -152.5q-38 -125 -38 -171q0 -31 10 -68q18 -67 36 -104q19 -42 66 -89.5t96 -76.5q50 -29 60 -49q7 -14 7 -29q0 -26 -19 -45t-48 -19h-2q-34 1 -96 41t-107 91
q-46 51 -70.5 92t-46.5 104q-22 65 -22 122v24q0 54 5 84t28 105q34 114 52 148q17 35 47 79.5t50 66.5q16 18 56.5 49.5t63.5 43.5z" />
    <glyph glyph-name="parenright" unicode=")" horiz-adv-x="429" 
d="M112 809q14 7 27 7q27 0 46 -17q17 -15 72 -99.5t66 -113.5q16 -45 35 -106q27 -86 27 -197q0 -148 -44 -269q-13 -38 -27.5 -60.5t-52.5 -65.5q-57 -63 -87 -85.5t-60 -22.5q-18 0 -28 5t-22 19q-17 20 -17 37q0 28 61 90q57 57 76 83q29 39 46.5 114t17.5 158
q0 23 -1 34q-8 152 -113 316q-59 92 -59 111q2 42 37 62z" />
    <glyph glyph-name="asterisk" unicode="*" horiz-adv-x="452" 
d="M189 748q20 20 40 20q14 0 32 -9q14 -7 25 -25t11 -34q0 -11 26 -6q5 1 15 1q17 0 32 -5q37 -15 37 -54q0 -31 -26 -53t-33 -25q-9 -1 3 -23q11 -22 11 -36t-10 -33q-16 -30 -56 -30q-10 0 -21 3q-21 8 -49 32l-30 25l-16 -14q-29 -28 -58 -28q-24 0 -46 21
q-16 15 -16 43q0 27 16 46l17 19l-24 24q-25 25 -25 50t24 44q19 16 40 16q16 0 44 -9q16 -5 16 7t21 33z" />
    <glyph glyph-name="plus" unicode="+" horiz-adv-x="593" 
d="M271 555q21 11 28 11q8 0 26 -7q26 -9 35 -33.5t9 -84.5v-69h57q62 0 75 -6q48 -19 48 -65q0 -26 -19 -46q-14 -14 -27 -17t-64 -3h-70v-75q0 -52 -3 -66.5t-16 -30.5q-20 -24 -48 -24q-27 0 -49 22q-15 16 -18 29.5t-3 68.5v76h-53q-135 0 -135 70q0 39 20 54.5t71 15.5
q20 0 32 -1l65 -4v69q0 59 7.5 82t31.5 34z" />
    <glyph glyph-name="comma" unicode="," horiz-adv-x="275" 
d="M133 -32q22 13 38 13q18 0 38 -17q22 -19 22 -48q0 -30 -20 -80q-18 -44 -30 -84q-9 -33 -29 -52t-45 -19q-15 0 -29 7q-34 18 -34 60q0 35 25 107q24 65 34 82.5t30 30.5z" />
    <glyph glyph-name="hyphen" unicode="-" horiz-adv-x="545" 
d="M166 380q113 5 174 5q96 0 118 -9q44 -18 44 -63q0 -28 -22 -49q-16 -15 -63 -15h-22h-16q-64 0 -132 -7q-53 -5 -82 -5q-71 0 -100 25q-22 18 -22 43q0 42 24 56t99 19z" />
    <glyph glyph-name="period" unicode="." horiz-adv-x="224" 
d="M65 -31q22 20 45 20q25 0 45 -19t24 -50q2 -14 2 -17q0 -15 -20 -36q-23 -22 -48 -22q-30 0 -49.5 22t-19.5 51q0 30 21 51z" />
    <glyph glyph-name="slash" unicode="/" horiz-adv-x="667" 
d="M519 747q18 15 40 15q25 0 44 -19q18 -20 18 -47q0 -30 -21 -72q-5 -10 -11.5 -22.5t-10.5 -21t-6 -11.5q-33 -68 -117 -225.5t-137 -249.5q-128 -224 -137 -250q-5 -16 -27.5 -32.5t-39.5 -16.5q-28 0 -47.5 22t-19.5 51q0 10 1 15q8 38 107 211q92 157 150 271
q23 43 68.5 126t81.5 154q45 87 64 102z" />
    <glyph glyph-name="zero" unicode="0" horiz-adv-x="642" 
d="M400 616q-11 16 -27 16q-34 0 -83.5 -72t-81.5 -166q-16 -47 -19.5 -72.5t-3.5 -97.5q0 -157 36 -211q22 -32 81 -33h9q16 0 25 6t30 29q40 47 67.5 150t27.5 202q0 43 -6 79q-8 46 -24 97t-31 73zM344 768q27 6 37 6q11 0 43 -9q41 -12 61.5 -33t46.5 -76
q60 -128 65 -267q1 -17 1 -48q0 -108 -36 -230q-20 -67 -39.5 -105.5t-52.5 -78.5q-72 -87 -169 -87q-61 0 -130 36q-38 20 -55 42t-37 78q-35 97 -35 226q0 27 1 41q2 55 7.5 85t25.5 89q46 140 115 225.5t151 105.5z" />
    <glyph glyph-name="one" unicode="1" horiz-adv-x="419" 
d="M273 773q15 6 29 6q24 0 43 -16.5t26 -44.5q3 -11 3 -72q0 -83 -4 -188t-9 -129q-3 -11 -14.5 -194t-11.5 -210q0 -14 -18 -36q-11 -14 -21 -18t-29 -4q-58 0 -67 69q-1 5 -1 24q0 136 25 411q10 107 10 140v23l-26 -25q-32 -30 -51 -40t-43 -10q-19 0 -28.5 4t-20.5 18
q-20 25 -20 38q0 16 18 39t65 69q87 89 102 109q21 26 43 37z" />
    <glyph glyph-name="two" unicode="2" horiz-adv-x="613" 
d="M305 749q35 12 73 12q91 0 143 -55q46 -47 46 -143q0 -83 -36 -165q-23 -53 -89.5 -142.5t-147.5 -177.5q-40 -43 -49 -60l-8 -15l125 5q104 6 148 6q26 -1 42 -18t16 -42q0 -20 -12 -39q-16 -25 -35 -32q-21 -8 -206 -15q-130 -5 -153 -5q-43 0 -67 12q-49 24 -49 72
q0 27 15 57q14 27 192 236q177 204 177 312q0 19 -4 34q-10 38 -39 38q-9 0 -23 -3q-25 -4 -44 -35q-26 -40 -40 -51t-38 -11q-26 1 -40 10t-22 32q-3 10 -3 22q0 37 32 84q22 32 43 49t53 28z" />
    <glyph glyph-name="three" unicode="3" horiz-adv-x="635" 
d="M239 778q9 2 65 2q192 0 224 -10q29 -10 46 -31q17 -20 17 -41q0 -2 -0.5 -7.5t-0.5 -8.5q-4 -36 -39.5 -84.5t-68.5 -86t-33 -49.5q0 -4 4 -7q29 -17 60 -47.5t44 -53.5q19 -35 28 -101q5 -45 5 -78q0 -154 -83 -242t-232 -88q-61 0 -89.5 9t-61.5 39q-76 67 -76 132
q0 30 19 49q20 20 45 20q43 0 69 -52q6 -14 28 -40q11 -13 21.5 -16.5t36.5 -3.5q39 0 78 11q58 17 81.5 57t23.5 118v6q-1 87 -23 123t-78 43q-43 4 -56.5 9t-27.5 20q-19 19 -19 46q0 23 15 45.5t84 102.5q55 66 55 77q0 6 -36 6q-9 0 -49 -2q-36 -2 -47 -2
q-35 0 -50.5 7.5t-31.5 27.5q-11 14 -11 25q0 10 4 23q14 44 60 53z" />
    <glyph glyph-name="four" unicode="4" horiz-adv-x="548" 
d="M135 736q17 38 63 38q24 0 44 -16q22 -18 22 -47q0 -27 -18 -101q-42 -176 -50 -225l-5 -27h28q21 0 75 4l47 5l9 127q9 128 16.5 164.5t27.5 55.5t43 19t44 -21q9 -9 12 -13t5.5 -13.5t2.5 -25.5t-10 -146q-21 -267 -29 -481q-4 -119 -17.5 -149.5t-59.5 -30.5
q-22 0 -39 13.5t-21 34.5q-2 6 -2 58q0 70 2 112l4 152l-93 -6q-60 -2 -67 -2q-33 0 -58 11q-25 10 -43 28q-23 28 -23 75q0 15 3 28q68 340 87 379z" />
    <glyph glyph-name="five" unicode="5" horiz-adv-x="644" 
d="M233 781q23 9 138 9h51q44 0 56.5 -3t26.5 -15q24 -20 24 -51q0 -26 -20 -46q-13 -12 -29.5 -15.5t-77.5 -4.5l-88 -3l-6 -37q-4 -42 -4 -78v-40l49 -4q102 -8 157.5 -60t77.5 -163q11 -55 11 -93q0 -44 -13 -93q-32 -122 -100.5 -183.5t-179.5 -68.5q-4 0 -12 -0.5
t-12 -0.5q-133 0 -189 107q-47 92 -47 147q0 58 52 68q5 1 15 1q48 0 66 -62q12 -42 29 -76t30 -41t41 -7q48 0 79 14q89 40 103 181q0 3 0.5 8t0.5 8q0 36 -10.5 77t-26.5 64q-14 20 -33.5 27.5t-59.5 7.5q-11 0 -47 -2l-74 -5l-26 26q-11 11 -15 16.5t-7 18t-3 34.5
q0 37 9 162q5 75 11 106.5t17 46t36 23.5z" />
    <glyph glyph-name="six" unicode="6" horiz-adv-x="618" 
d="M380 255q-26 17 -57 17q-66 0 -120 -57l-28 -29l8 -74q5 -60 16 -82.5t43 -44.5q23 -16 58 -16q59 0 93 39q36 42 36 130q0 83 -49 117zM408 804q17 4 42 4q52 0 82 -15q20 -9 31 -29t11 -43q0 -29 -18 -49q-17 -17 -40 -17q-20 0 -63 9q-1 0 -3.5 0.5t-4.5 0.5
q-25 0 -66 -21t-65 -47q-23 -26 -55.5 -87t-36.5 -89q-2 -16 -2 -18q0 -7 5 -7t14 3q24 6 82 6q55 0 95.5 -16.5t80.5 -54.5q42 -42 54 -78t12 -122q0 -72 -3 -91.5t-19 -53.5q-31 -65 -75.5 -100t-119.5 -54q-30 -7 -50 -7q-50 0 -113 33q-75 41 -116 127q-17 36 -20 57.5
t-3 106.5v35q0 57 4.5 88.5t21.5 103.5q72 302 251 392q56 26 87 33z" />
    <glyph glyph-name="seven" unicode="7" horiz-adv-x="593" 
d="M80 811q14 10 27.5 13t54.5 3q10 0 112 -2q168 -3 200 -13q31 -9 50 -30t22 -50q1 -5 1 -13q0 -24 -32 -87q-25 -50 -77 -136q-93 -150 -159 -332q-43 -116 -72 -291q-5 -31 -25 -51t-45 -20q-30 0 -47.5 19t-17.5 53q0 61 34 202q23 96 96 259t140 271q41 65 41 70
q0 13 -71 13q-15 0 -83 -2q-76 -2 -83 -2q-42 0 -59 10q-41 21 -41 60q0 34 34 56z" />
    <glyph glyph-name="eight" unicode="8" horiz-adv-x="661" 
d="M395 306q-36 20 -76 26q-18 2 -21 2q-11 0 -17.5 -4.5t-21.5 -20.5q-26 -26 -51 -80q-17 -36 -22.5 -56t-6.5 -60q0 -8 -0.5 -19t-0.5 -15q0 -21 3.5 -29.5t17.5 -25.5q19 -22 47 -39t46 -17q10 0 52 8q59 13 98 69.5t39 128.5q0 17 -3 35q-8 60 -83 97zM404 665
q-25 9 -41 9q-24 0 -54 -38q-16 -20 -16 -52q0 -21 4 -29t20 -18q16 -11 36 -11q10 0 16 1q28 5 41.5 17.5t23.5 44.5q7 25 7 35q0 28 -37 41zM329 812q26 4 31 4q17 0 90 -22q60 -19 88 -50t39 -93q2 -16 2 -25q0 -44 -20.5 -96t-50.5 -83l-29 -30l28 -16q52 -29 80 -91
t28 -138q0 -70 -24 -136.5t-70 -113.5q-39 -39 -102 -64t-123 -25q-17 0 -25 1q-61 7 -119.5 47.5t-88.5 97.5q-13 24 -16 43t-3 80q0 58 3.5 81t17.5 61q37 102 106 175l27 29l-21 44q-22 44 -22 98q0 35 8 63q14 52 64.5 100.5t101.5 58.5z" />
    <glyph glyph-name="nine" unicode="9" horiz-adv-x="596" 
d="M390 666q-16 23 -33 23q-13 0 -43 -14q-38 -19 -65.5 -63.5t-27.5 -85.5q0 -10 1 -15q7 -46 50 -70q19 -10 31 -10q7 0 29 5q30 8 42 16.5t23 30.5q18 36 18 86q0 62 -25 97zM265 805q43 22 93 22q87 0 106 -37q9 -15 36 -46q29 -34 40.5 -75.5t11.5 -125.5
q0 -77 -9 -218q-7 -114 -20 -178t-43 -128q-28 -61 -74 -106q-41 -39 -73 -53t-80 -14h-18q-57 3 -96 24q-93 47 -93 103q0 23 18 45q20 23 43 23q27 0 68 -30q37 -29 70 -29q20 0 31.5 5t30.5 22q39 35 64.5 103.5t29.5 147.5q0 6 0.5 14.5t0.5 10.5q0 17 -9 17
q-1 0 -3.5 -0.5t-4.5 -0.5q-9 -1 -80 -3h-20q-44 0 -74 18q-32 19 -66 54.5t-45 61.5q-17 43 -17 91q0 89 54 169q28 42 55.5 66t72.5 47z" />
    <glyph glyph-name="colon" unicode=":" horiz-adv-x="254" 
d="M80 149q21 20 53 20q31 0 54 -19t23 -49q0 -16 -14.5 -37t-34.5 -35q-27 -18 -50 -18q-25 0 -46 21t-21 48q0 36 36 69zM88 549q14 16 23.5 20.5t26.5 4.5q29 0 50 -16q14 -10 18 -18.5t4 -28.5t-5 -31t-24 -29q-27 -28 -50 -28q-16 0 -36 11q-18 9 -24 21t-6 40t23 54z
" />
    <glyph glyph-name="semicolon" unicode=";" horiz-adv-x="283" 
d="M124 157q17 14 39 14q27 0 48.5 -18.5t21.5 -45.5q0 -31 -27.5 -109.5t-46.5 -98.5q-21 -25 -46 -25q-21 0 -46 20q-21 17 -21 35q0 10 1 17q3 36 33 118t44 93zM116 576q30 27 52 27q23 0 48 -25q23 -23 23 -39q0 -8 -1 -13q-4 -24 -30 -52.5t-48 -32.5q-3 -1 -11 -1
q-14 0 -30 7q-38 20 -38 59q0 37 35 70z" />
    <glyph glyph-name="less" unicode="&#x3c;" horiz-adv-x="441" 
d="M299 558q17 9 34 9q25 0 44.5 -17t19.5 -42t-17.5 -45.5t-94.5 -83.5q-88 -72 -88 -82q0 -4 85 -70q86 -67 96 -81q13 -17 13 -38q0 -43 -43 -61q-8 -2 -12 -2q-38 0 -95 46q-29 24 -86 68q-111 86 -111 145q0 24 13 44q12 20 111 105.5t131 104.5z" />
    <glyph glyph-name="equal" unicode="=" horiz-adv-x="530" 
d="M85 239q9 9 18.5 12t39.5 3q7 0 95 -2q122 -3 145 -6.5t44 -21.5q22 -19 22 -48q0 -22 -13.5 -39.5t-36.5 -23.5q-12 -3 -70 -3q-54 0 -83 1q-85 3 -110 6.5t-38 13.5q-36 26 -36 60q0 25 23 48zM82 458q12 8 33.5 10t88.5 2h69h170l21 -24q21 -24 21 -46t-21 -42
l-21 -20l-166 -6q-100 -2 -112 -2q-59 0 -78 8q-43 18 -43 59q0 39 38 61z" />
    <glyph glyph-name="greater" unicode="&#x3e;" horiz-adv-x="450" 
d="M104 567q16 6 30 6t32 -9q19 -10 100 -93t107 -119q33 -47 33 -90q0 -18 -7 -31q-9 -16 -78 -77.5t-128 -105.5q-60 -45 -89 -45q-16 0 -32 9t-21.5 18.5t-5.5 29.5q0 26 9 39.5t48 43.5q159 125 159 138q0 7 -89 98q-89 89 -97 111q-3 9 -3 18q0 19 9 36t23 23z" />
    <glyph glyph-name="question" unicode="?" horiz-adv-x="545" 
d="M159 102q14 8 33 8q30 0 48 -16q22 -19 22 -65q0 -42 -20 -62t-65 -20q-8 0 -20 2q-16 4 -31.5 26.5t-15.5 41.5t16.5 47.5t32.5 37.5zM189 851q11 4 61 4q79 0 106 -8q28 -8 63 -39.5t54 -65.5q26 -46 26 -109q0 -27 -6 -49q-19 -76 -120 -166q-54 -49 -54 -57
q0 -9 -18 -25q-19 -19 -29 -53q-12 -40 -28 -59q-17 -21 -48 -21t-48 21q-17 20 -17 39q0 5 2 27q4 47 28 86t94 112q59 61 82 95.5t23 60.5q0 8 -1 12q-5 30 -25.5 44t-62.5 17q-11 1 -27 1q-22 0 -41 -18q-21 -19 -21 -29t-21 -31q-21 -23 -48 -23q-23 0 -42 18
q-26 24 -26 56q0 39 39 83q33 37 60 49q26 14 31 19q6 6 14 9z" />
    <glyph glyph-name="at" unicode="@" horiz-adv-x="1007" 
d="M599 386q0 8 -36 8q-24 0 -33.5 -4t-24.5 -21q-20 -22 -39 -59.5t-19 -52.5q0 -13 13.5 -21t32.5 -8t47.5 33.5t42.5 73.5q16 48 16 51zM467 729q45 8 84 8q89 0 171.5 -33t143.5 -93q51 -50 74 -99.5t23 -112.5q0 -46 -12 -106q-15 -79 -71 -140.5t-113 -61.5
q-49 0 -113 41l-27 17l-21 -18q-46 -39 -112 -39q-51 0 -97 25q-92 49 -92 130q0 18 4 33q16 68 63.5 137.5t95.5 93.5q42 21 95 21q94 0 150 -56l31 -31l-5 -100q-2 -68 -2 -72q0 -21 2.5 -27t9.5 -10t13 -4q7 0 18 11q38 38 46 123q2 26 2 33q0 22 -11 47q-26 58 -84 98
t-134 53q-32 6 -50 6q-21 0 -64 -9q-124 -26 -202 -109q-39 -42 -52 -65t-32 -82q-19 -60 -19 -99q0 -64 53 -124q53 -61 163 -97q42 -14 62 -17.5t62 -3.5q43 0 75 1q94 3 121.5 7t73.5 20q59 23 89 23q26 0 42 -19q17 -20 17 -43q0 -25 -20 -47t-89 -43.5t-140 -29.5
q-48 -5 -123 -5q-33 0 -47 1q-66 2 -93.5 7t-77.5 22q-71 24 -110 45.5t-79 57.5q-115 105 -115 243q0 47 14 103q23 91 58 151.5t98 119.5q93 88 253 118z" />
    <glyph glyph-name="A" unicode="A" horiz-adv-x="771" 
d="M424 433q-23 89 -30 89q-3 0 -8 -13q-16 -39 -30 -70q-14 -32 -32.5 -86t-19.5 -64q0 -5 27 -5q20 0 78 6.5t58 9.5t-11 29q-11 23 -32 104zM366 743q25 17 46 17q23 0 40 -20q16 -19 23 -46q9 -33 23 -74q12 -36 41 -138q23 -86 52 -152q16 -34 26.5 -62.5t22.5 -65
t22 -64.5q23 -61 42.5 -130.5t19.5 -89.5t-19.5 -33t-39.5 -13q-24 0 -40 16q-13 13 -20.5 30.5t-25.5 77.5q-15 54 -40 119l-23 62l-25 -3q-28 -4 -130 -11l-105 -8l-47 -143q-46 -143 -62 -160q-17 -18 -40 -18q-24 0 -42.5 18t-18.5 45q0 9 1 13q5 30 91 281.5t112 314.5
q37 91 41 104q14 44 36 82.5t39 50.5z" />
    <glyph glyph-name="B" unicode="B" horiz-adv-x="602" 
d="M328 233q-67 24 -127 24q-10 0 -22 -2l-15 -3v-152q0 -100 1.5 -126t8.5 -28q12 -4 65 -4q36 0 53 3.5t46 16.5q59 26 82 59t23 90q0 54 -19.5 74t-95.5 48zM290 610q-22 9 -55 14l-33 4v-34q0 -32 -13 -110q-12 -69 -12 -86q0 -16 11 -16q8 0 13 1q76 11 99 29
q19 14 43 51.5t24 51.5q0 25 -22.5 53t-54.5 42zM122 744q17 7 58 7q53 0 105 -11q81 -17 134.5 -69t67.5 -126q4 -24 4 -35q0 -49 -47 -119l-37 -54l35 -15q30 -12 58.5 -38.5t45.5 -57.5q10 -19 12 -37.5t2 -81.5q0 -67 -2 -84.5t-14 -39.5q-24 -45 -54 -72t-82 -52
q-58 -27 -91 -35t-88 -8h-16q-50 1 -66.5 4t-41.5 16q-37 21 -50 41q-8 13 -10.5 31.5t-2.5 83.5q0 13 0.5 56t0.5 75q1 222 16 329q12 81 22 182q5 63 12 81.5t29 28.5z" />
    <glyph glyph-name="C" unicode="C" horiz-adv-x="663" 
d="M385 791q30 6 55 6q19 0 64 -5q53 -7 68 -11.5t29 -18.5q17 -17 17 -41q0 -26 -17 -40q-21 -20 -49 -20q-18 0 -41 4q-42 7 -68 7q-40 0 -96.5 -41t-91.5 -96q-47 -71 -65.5 -131.5t-18.5 -140.5v-28q2 -56 5.5 -73t20.5 -51q35 -72 72 -106t99 -53q31 -10 44 -10
q9 0 41 8q44 12 59 23q18 12 44 12q28 0 42 -14q18 -19 18 -41q0 -27 -28 -52.5t-79 -42.5q-42 -14 -87 -14q-47 0 -93 14q-68 19 -115 54t-87 95q-48 72 -65.5 127t-17.5 132q0 152 55 268q47 100 131.5 183.5t154.5 96.5z" />
    <glyph glyph-name="D" unicode="D" horiz-adv-x="625" 
d="M291 577q-66 32 -92 36l-26 4l-3 -72q-5 -67 -5 -328v-93q0 -105 3 -134t16 -29q6 0 34 11q53 19 146 110q29 29 40 45.5t25 52.5q32 84 32 146q0 43 -16 91q-20 59 -53 93t-101 67zM97 738q19 9 43 9q25 0 84 -14q64 -16 134 -51.5t107 -68.5q74 -69 104 -187
q12 -46 12 -103q0 -80 -23 -149q-30 -86 -63 -134t-95 -96q-10 -7 -31.5 -24t-28.5 -22q-28 -22 -101 -49.5t-103 -27.5q-64 0 -82 51q-13 43 -13 403q0 149 4 232q4 101 8.5 142.5t13.5 60.5t30 28z" />
    <glyph glyph-name="E" unicode="E" horiz-adv-x="632" 
d="M180 776q29 14 62 14q6 0 64 -2q221 -7 246 -25q26 -16 26 -51q0 -8 -3 -16q-5 -15 -24 -30q-15 -12 -51 -12q-6 0 -74 2l-57.5 2.5t-57 2.5t-31.5 2l-39 3l-3 -27q-6 -46 -13 -105q-8 -61 -8 -78q0 -5 90 -9.5t144 -4.5q5 0 11 0.5t7 0.5q7 1 17 1q15 0 32 -17
q19 -19 19 -43q0 -43 -47 -59q-20 -7 -60 -7q-44 0 -124 4l-108 5l-4 -62q-11 -128 -13 -143q-10 -76 -10 -126q0 -30 5 -30t68 9q64 9 182 13l120 5l21 -17q20 -18 20 -42q0 -22 -12.5 -39t-33.5 -23q-11 -4 -130 -10q-105 -3 -142 -10q-34 -6 -92 -6q-53 0 -76 10.5
t-42 43.5q-15 26 -15 80q0 36 10 121q12 100 16 174q4 57 10.5 112t16 125t14.5 108q8 82 20.5 110t48.5 46z" />
    <glyph glyph-name="F" unicode="F" horiz-adv-x="584" 
d="M444 795l6 1h9q3 0 11 -0.5t12 -0.5q57 -5 57 -60q0 -42 -41 -57q-9 -4 -130 -15q-123 -11 -187 -26q-10 -2 -12 -13.5t-2 -72.5v-83l80 4q109 7 157 12q48 4 58 4q27 0 40 -7t22 -25q8 -16 8 -30q0 -42 -46 -56q-23 -6 -165 -17q-145 -11 -147 -13t5 -65q7 -61 7 -237
q0 -173 -10 -192q-17 -32 -49 -32q-23 0 -42 18q-13 14 -16 30t-6 92q-3 70 -3 157v28v15q0 72 -9 155q-9 74 -9 136q0 17 2 91q4 140 12 159q15 36 84 57.5t210 33.5q85 7 94 9z" />
    <glyph glyph-name="G" unicode="G" horiz-adv-x="829" 
d="M404 814q32 8 88 8h18q71 -1 108 -18q32 -15 61 -42q18 -17 22.5 -25.5t4.5 -25.5q0 -27 -16 -42q-16 -16 -44 -16q-25 0 -42 13q-8 6 -13 8.5t-5 1.5t-6.5 1t-22.5 8q-27 12 -76 12q-33 0 -47.5 -3.5t-42.5 -19.5q-73 -40 -122 -108t-84 -178q-17 -52 -17 -114
q0 -97 42.5 -181.5t113.5 -120.5q27 -14 41 -17.5t41 -3.5h22q134 1 181 82q19 31 36 102t17 117v50l-153 -5q-144 -4 -146 -4q-50 0 -67 13q-23 17 -23 48q0 35 28 50q13 6 123.5 12t204.5 6q79 0 92 -5q65 -25 65 -146q0 -97 -40 -236q-10 -34 -46 -86
q-30 -42 -60.5 -63.5t-86.5 -40.5q-46 -15 -135 -15h-89l-54 27q-50 24 -72 43t-54 62q-37 50 -47.5 70t-29.5 79q-28 83 -28 167q0 154 97 318q46 79 117.5 138.5t145.5 79.5z" />
    <glyph glyph-name="H" unicode="H" horiz-adv-x="653" 
d="M43 716q6 21 20 36t36 15q44 0 55.5 -30t11.5 -146v-119l98 -4q54 -2 87 -2q39 0 71 2l59 4v67q0 46 5 126q3 40 6.5 51.5t15.5 22.5q16 15 42 15q19 0 35 -11t21 -29q2 -6 2 -63q0 -80 -2 -130q-3 -72 -3 -155q0 -73 4 -207l6 -206q0 -24 -20 -40.5t-44 -16.5
q-22 0 -38 16q-14 14 -18 39t-5 106q-2 88 -7 167q-6 71 -6 103v17h-309v-146q0 -140 6 -206q3 -30 3 -44q0 -22 -8 -38q-10 -22 -28 -32q-10 -6 -24 -6q-32 0 -53 26q-9 12 -12 38.5t-6 128.5q-4 144 -4 429q0 206 3 222z" />
    <glyph glyph-name="I" unicode="I" horiz-adv-x="214" 
d="M80 782q12 3 32 3h5q20 0 38 -18l19 -19l-4 -58q-3 -33 -5 -415q-1 -249 -3 -305.5t-10 -68.5q-18 -27 -49 -27q-29 0 -49 26l-14 18q0 136 2 407.5t2 406.5l14 23q14 23 22 27z" />
    <glyph glyph-name="J" unicode="J" horiz-adv-x="595" 
d="M440 724q16 17 39 17q21 0 38.5 -13.5t24.5 -36.5q11 -38 11 -240q0 -108 -4 -173q-10 -176 -38.5 -269t-85.5 -137q-36 -27 -66 -36t-84 -10h-22q-28 0 -42 4t-45 19q-64 31 -92 83t-29 136v26q0 27 3 35.5t12 15.5q22 17 41 17q10 0 23 -5q19 -8 27.5 -27.5t15.5 -67.5
q6 -44 16 -63.5t36 -36.5q20 -14 56 -14q44 0 69 19q45 34 64 138t19 318v71l-2 213z" />
    <glyph glyph-name="K" unicode="K" horiz-adv-x="678" 
d="M74 718q17 9 31 9q20 0 41 -18l21 -19l-2 -142q0 -14 -0.5 -37t-0.5 -31q0 -75 7 -75q9 0 88 83q164 171 194 199t50 28h1q27 0 46 -18t19 -42q0 -11 -4 -20q-5 -11 -93 -105.5t-162 -167.5l-60 -59l41 -40q31 -30 95 -83q47 -39 116 -102q100 -90 113 -104.5t16 -37.5
q0 -2 0.5 -5t0.5 -5q0 -48 -44 -56q-4 -1 -12 -1q-19 0 -43 17t-77 66q-65 60 -142 125q-74 61 -104 89l-33 31l4 -129q2 -76 2 -94q0 -56 -5 -78.5t-20 -37.5q-17 -17 -37 -17q-11 0 -28 7q-22 10 -27.5 33.5t-6.5 111.5q-2 111 -9 190q-8 85 -8 286q0 191 8 217
q7 22 24 32z" />
    <glyph glyph-name="L" unicode="L" horiz-adv-x="506" 
d="M81 750q19 22 46 22q22 0 40 -15l18 -15l-2 -95q-1 -62 -8 -227q-6 -110 -6 -280v-146l40 -4q38 -4 80 -8.5t69 -7.5t37 -4q29 -4 47 -22t18 -41q0 -24 -18 -42t-51 -18q-22 0 -152 13q-102 10 -133 20t-49 37q-11 15 -13 39.5t-2 133.5q0 114 5.5 319t10.5 273
q3 45 23 68z" />
    <glyph glyph-name="M" unicode="M" horiz-adv-x="985" 
d="M697 740q16 13 42 13q40 0 59.5 -46t36.5 -179q34 -272 92 -537q12 -60 12 -75q0 -26 -17.5 -43.5t-41.5 -17.5q-15 0 -28 7q-17 8 -28 33.5t-24 90.5q-49 232 -83 481q-13 92 -15 94t-33 -30.5t-96 -104.5q-52 -59 -72.5 -75t-43.5 -16q-35 0 -60 21t-60 80
q-30 53 -37.5 64.5t-12.5 11.5q-6 0 -13 -45q-4 -25 -15.5 -75.5t-16.5 -91.5q-8 -59 -23 -142t-22 -100t-18 -77q-13 -59 -23 -74q-7 -10 -23.5 -18t-31.5 -8q-7 0 -10 1q-16 4 -30.5 24.5t-14.5 37.5q0 50 34 169q13 43 29 146q16 105 35 203q15 76 37 154.5t33 95.5
q9 13 28 23.5t34 10.5q1 0 3 -0.5t3 -0.5q17 -4 32.5 -22.5t22.5 -41.5q6 -25 35 -67q39 -61 51 -81q30 -44 32 -44q9 0 116 118q103 115 126 133z" />
    <glyph glyph-name="N" unicode="N" horiz-adv-x="776" 
d="M648 744q13 5 23 5q39 0 56 -40q4 -9 4 -32q0 -25 -9 -132q-16 -155 -24 -286q-19 -277 -34 -330q-7 -23 -27 -41q-16 -15 -33 -15q-7 0 -12 1q-38 5 -80.5 64.5t-134.5 237.5q-25 51 -50 92.5t-53 98.5q-37 76 -56 103l-13 19l-5 -16q-3 -10 -11 -174q-17 -345 -27 -384
q-6 -23 -22 -36t-36 -13q-35 0 -52 33q-8 13 -8 39q0 27 4 76q10 130 14 245q14 311 32 392q9 42 29 65t46 23q17 0 32 -8q19 -10 41 -57q24 -53 61 -106q33 -48 78 -138q40 -80 76 -143q37 -65 49 -92q11 -25 33 -59l19 -32l5 22q6 22 11 130q27 419 46 462q3 7 11.5 15
t16.5 11z" />
    <glyph glyph-name="O" unicode="O" horiz-adv-x="846" 
d="M551 596q-51 23 -112 23q-41 0 -71 -12q-52 -22 -112.5 -92.5t-75.5 -126.5q-10 -37 -10 -94q0 -129 36 -191q17 -29 56.5 -64t62.5 -41q15 -4 68 -4h28q45 1 63.5 5t42.5 15q47 23 84.5 73.5t56.5 116.5q10 38 10 107q0 117 -19 169q-29 79 -108 116zM361 735
q36 12 74 12q50 0 121 -23q55 -18 82 -33t58 -43q43 -39 73 -112q35 -90 35 -216q0 -185 -98 -313q-106 -141 -301 -141q-81 0 -132.5 21t-106.5 76q-58 59 -76 91.5t-33 107.5q-13 62 -13 125q0 150 74 253q59 82 114 126t129 69z" />
    <glyph glyph-name="P" unicode="P" horiz-adv-x="655" 
d="M434 633q-27 11 -89 11h-22q-109 -1 -118 -10q-4 -4 -13.5 -102t-9.5 -130v-5l1 -3q3 -8 40 -8q26 0 45 1q59 2 76 5t48 19t41.5 26t28.5 43q26 49 26 82q0 48 -54 71zM231 768q5 1 49 1q40 0 62 -1q97 -4 127 -16q73 -27 107.5 -73.5t34.5 -117.5q0 -3 -0.5 -10
t-0.5 -11q-3 -47 -31 -102q-49 -96 -117 -134t-197 -43l-91 -4v-42q-5 -284 -21 -315q-17 -30 -50 -30q-26 0 -44 21q-13 14 -15 28q-2 13 -2 40q0 49 9 271q15 398 34 448q5 14 34 45q21 22 35 27.5t77 17.5z" />
    <glyph glyph-name="Q" unicode="Q" horiz-adv-x="892" 
d="M579 615q-51 14 -108 14q-75 0 -120 -21q-20 -9 -52.5 -38.5t-52.5 -57.5q-22 -29 -44 -83.5t-29 -97.5q-9 -53 -9 -98q0 -87 35 -157q11 -23 43 -63t45 -47q8 -5 74 -18q46 -10 63 -10t42 7q26 7 61 20t35 18t-27 48q-28 44 -28 66q0 16 12 31q21 25 47 25q37 0 67 -44
q21 -32 27 -34q6 0 30 53q37 73 38 207q0 83 -18.5 139t-60.5 98q-33 33 -70 43zM449 755q29 3 43 3q17 0 49 -6q98 -17 144 -47q55 -37 96.5 -101.5t58.5 -138.5q10 -52 10 -138q0 -84 -10 -147q-8 -40 -37 -105.5t-54 -99.5l-16 -22l19 -27q21 -31 30 -50q6 -15 6 -29
q0 -26 -18 -44.5t-46 -18.5q-29 0 -74 68l-17 26l-41 -18q-99 -45 -169 -45q-34 0 -101 14t-90 25q-42 22 -96.5 95.5t-76.5 139.5q-15 43 -15 147q0 81 11 138q40 194 182 306q44 35 89.5 51.5t122.5 23.5z" />
    <glyph glyph-name="R" unicode="R" horiz-adv-x="644" 
d="M334 638q-38 13 -79 13h-11h-24.5t-19.5 -0.5t-13.5 -1.5t-11 -4.5t-5.5 -8t-4 -13.5t-1 -19t-1 -27v-63v-130l38 3q88 10 136.5 52.5t52.5 114.5q1 7 1 19q0 29 -11.5 41t-46.5 24zM170 772q58 5 87 5q51 0 101 -15q92 -28 128 -83q32 -50 32 -122q0 -50 -16 -89
q-14 -37 -42.5 -77t-51.5 -56q-29 -20 -29 -23q0 -2 39 -71q124 -216 158 -256q22 -27 22 -51q0 -26 -16.5 -41t-41.5 -15q-22 0 -40 11q-16 9 -79 102.5t-74 124.5q0 2 -6.5 12.5t-18.5 31.5t-21 37l-43 73l-26 -3q-33 -4 -45 -8l-19 -4l3 -66q2 -74 2 -194v-129l-17 -17
q-18 -18 -43 -18t-43 18l-17 17l-6 195q-5 178 -5 411l-1 215l21 30q19 28 41 39t67 16z" />
    <glyph glyph-name="S" unicode="S" horiz-adv-x="614" 
d="M357 781q39 9 74 9q56 0 93.5 -20t37.5 -51q0 -21 -18 -42l-17 -20l-57 4q-28 2 -39 2q-28 0 -46 -5q-23 -6 -49 -27.5t-37 -44.5q-21 -44 -21 -95q0 -9 1 -12q5 -18 43 -55.5t70 -55.5q36 -21 71 -50.5t50 -51.5q56 -86 56 -183q0 -22 -2 -32q-8 -52 -41.5 -102.5
t-73.5 -70.5q-62 -31 -156 -31q-60 0 -93 15q-19 9 -47 29t-42 28q-19 10 -42 35q-25 28 -25 53q0 23 20 43q18 18 36 18q20 0 55 -26q67 -50 83.5 -59t47.5 -9h16q54 0 78 12q63 33 63 98q0 40 -23 85q-16 31 -40 53t-71 50q-39 22 -88 73t-59 78q-9 27 -9 71q0 56 13 98
q23 77 81 131q28 26 50 38t57 20z" />
    <glyph glyph-name="T" unicode="T" horiz-adv-x="701" 
d="M79 768q13 7 37 7h8q36 -3 252 -6q182 -3 220.5 -7.5t50.5 -26.5q7 -13 7 -29q0 -26 -20 -46l-19 -18h-202l-3 -38q-2 -21 -10 -203q-21 -491 -37 -518q-18 -30 -52 -30q-35 0 -52 30q-9 15 -9 40q0 28 4 83q3 49 14.5 281.5t14.5 289.5l3 68h-81q-70 0 -98 6.5t-45 26.5
q-16 19 -16 41q0 33 33 49z" />
    <glyph glyph-name="U" unicode="U" horiz-adv-x="681" 
d="M534 693q15 16 42 16q16 0 24.5 -4t19.5 -17l17 -21l-4 -139q-8 -231 -45 -377q-22 -88 -43.5 -128t-68.5 -84q-65 -59 -148 -59q-46 0 -95 18q-36 14 -76 52.5t-58 77.5q-26 56 -41 171t-15 238q0 108 11 181q7 46 22 65t45 19q25 0 42 -20q15 -18 15 -36q0 -14 -3 -45
q-5 -55 -5 -200q2 -230 40 -316q11 -25 37.5 -48.5t48.5 -28.5q15 -3 28 -3q59 0 108 76q28 45 52 181.5t25 255.5q1 89 6 124.5t19 50.5z" />
    <glyph glyph-name="V" unicode="V" horiz-adv-x="858" 
d="M708 720q21 20 47 20q19 0 35 -12q21 -16 21 -38q0 -23 -22 -66q-34 -68 -53 -110.5t-41 -97.5t-42 -100q-35 -82 -42 -105q-8 -23 -63.5 -153t-70.5 -160q-26 -51 -78 -51q-15 0 -24 4.5t-23 19.5q-17 17 -40 68.5t-41 110.5q-10 33 -31 76q-23 47 -28 66q-5 17 -33 67
q-55 97 -88 227q-21 86 -31 111q-13 41 -13 61q0 26 18 46q19 19 37 19h5q24 -2 38 -14q27 -27 67 -192q13 -57 25.5 -89t47.5 -103q87 -175 107 -247q8 -31 12 -31q3 0 6 9q50 114 77 184q172 438 221 480z" />
    <glyph glyph-name="W" unicode="W" horiz-adv-x="1040" 
d="M907 655q15 5 30 5h5q15 -2 33 -21t18 -32q0 -23 -111 -282q-70 -165 -86 -211q-10 -30 -61 -147q-45 -97 -82 -121q-18 -12 -41 -12q-28 0 -52 19q-18 16 -26.5 32t-34.5 82q-28 69 -31 72h-1q-8 0 -35 -54q-38 -73 -67.5 -106t-59.5 -33q-16 0 -39 13q-29 18 -55 80
t-62 199q-37 141 -42 159q-19 62 -42 180q-19 95 -19 118q0 19 6.5 29t23.5 23q13 10 23 10q6 0 17 -3q29 -8 41.5 -35.5t34.5 -134.5q15 -74 25 -114t25 -92t28 -102q27 -103 34 -122l9 -26l19 35q14 25 59 108q41 76 56 88q14 11 33 11q25 0 46 -18t27 -46
q10 -45 35 -116.5t31 -71.5q4 0 32 65.5t38 96.5q15 41 128 306q23 54 38 95q13 36 24 51t28 23z" />
    <glyph glyph-name="X" unicode="X" horiz-adv-x="722" 
d="M104 747q14 6 27 6q20 0 35 -12q21 -17 59 -112q17 -41 68 -127.5t58 -86.5q5 0 156 232q43 66 64 86.5t45 20.5q23 0 41 -18t18 -42q0 -17 -44 -87t-161 -240q-47 -67 -47 -73q0 -5 33 -61.5t55 -87.5q6 -9 55.5 -97t63.5 -106q21 -26 24 -51q1 -5 1 -14q0 -14 -17 -31
q-19 -19 -43 -19q-16 0 -25.5 6.5t-32.5 30.5q-38 40 -52 73q-41 86 -109 192q-27 40 -34 40q-3 0 -5 -2q-7 -8 -56.5 -90.5t-87.5 -152.5q-28 -50 -46.5 -69.5t-38.5 -19.5q-6 0 -10 1q-23 4 -37 21t-14 39q0 13 4 22q8 23 65 126.5t95 160.5q32 50 44 69l17 27l-23 39
q-29 46 -38 58q-32 44 -82 146.5t-57 137.5q0 2 -0.5 4t-0.5 4q0 17 9.5 33.5t23.5 23.5z" />
    <glyph glyph-name="Y" unicode="Y" horiz-adv-x="757" 
d="M81 759q13 7 27 7q38 0 67 -55t114.5 -179.5t93.5 -124.5q15 0 65 79q8 13 45 68t58 89t34 59q33 65 70 65q22 0 37 -16q18 -18 18 -41q0 -18 -9 -47q-12 -39 -99.5 -172.5t-128.5 -174.5l-35 -34l-4 -166q-4 -142 -10 -186.5t-23 -58.5q-16 -13 -37 -13q-26 0 -42 18
q-11 12 -14 22.5t-3 46.5v34q4 167 5 195l5 110l-26 35q-21 26 -58 81t-56 80q-49 65 -89 136t-40 91q0 34 35 52z" />
    <glyph glyph-name="Z" unicode="Z" horiz-adv-x="826" 
d="M202 774q12 8 102 8q65 0 113 -1q256 -3 314 -21q47 -14 47 -58q0 -26 -17 -49q-69 -93 -267 -315q-109 -121 -205.5 -236.5t-96.5 -125.5q0 -2 92.5 -6.5t194 -13t118.5 -19.5q27 -18 27 -51q0 -29 -22 -47q-15 -11 -35 -11q-5 0 -39 2q-14 1 -44.5 2.5t-79 4t-77.5 3.5
q-148 7 -191 14t-66 30q-16 16 -20 25t-4 31q0 34 10 56q27 64 327 402q135 151 179 205l39 47l-182 4q-182 5 -205 12q-42 14 -42 57q0 19 6.5 29.5t23.5 21.5z" />
    <glyph glyph-name="bracketleft" unicode="[" horiz-adv-x="406" 
d="M208 791q50 6 72 6q27 0 44 -10q36 -19 36 -59q0 -32 -27.5 -49.5t-77.5 -17.5h-29l-13 -70q-27 -149 -37 -458l-5 -172h32q135 0 135 -67q0 -38 -22 -52t-82 -14q-28 0 -45 1q-69 3 -96 11t-41 31q-10 14 -10 85q0 12 2 162q6 358 34 482q8 39 15 85q7 55 30 76.5
t85 29.5z" />
    <glyph glyph-name="backslash" unicode="\" horiz-adv-x="632" 
d="M63 780q19 19 43 19q25 0 44 -19q17 -17 58 -103q45 -95 64 -135q24 -51 32 -83q11 -41 99 -213l28.5 -57l59 -118l63.5 -127q32 -66 32 -78q0 -27 -20 -47.5t-46 -20.5q-12 0 -21 4q-20 8 -42.5 45t-74.5 146q-44 95 -74 148q-26 44 -75 148t-62 141q-18 51 -106 235
q-20 43 -20 71q0 26 18 44z" />
    <glyph glyph-name="bracketright" unicode="]" horiz-adv-x="367" 
d="M63 765q13 13 28.5 16t76.5 3q72 0 102.5 -8t45.5 -31q9 -12 9 -105q0 -110 -4 -345q-6 -430 -15 -451q-7 -20 -28 -32t-65 -22q-72 -15 -95 -15q-20 0 -35 8q-38 20 -38 62q0 19 17.5 38.5t33.5 19.5q10 0 50 8l35 7l4 81q5 123 7 368l4 287h-47q-79 0 -97 35
q-7 13 -7 30q0 28 18 46z" />
    <glyph glyph-name="underscore" unicode="_" horiz-adv-x="675" 
d="M79 -15q18 11 153 11h21q119 0 226.5 -6.5t121.5 -14.5q13 -7 22 -25t9 -36q0 -2 -0.5 -4t-0.5 -4q-2 -16 -26 -36q-21 -17 -43 -17q-4 0 -38 2q-84 5 -253 10q-140 3 -169 6t-41 15q-17 17 -17 42q0 39 35 57z" />
    <glyph glyph-name="a" unicode="a" horiz-adv-x="551" 
d="M292 322q1 1 1 4q0 7 -7 25.5t-14 32.5l-7 15l-2 2q-3 0 -21 -53l-13 -37l29 4q29 4 34 7zM228 584q28 13 45 13q29 0 52 -31.5t53 -108.5q19 -49 35 -83q13 -26 47 -123.5t42 -133.5q5 -25 5 -40q0 -59 -52 -61q-32 0 -48 19t-29 73q-12 44 -21 65q-6 16 -10.5 21
t-16.5 5q-15 0 -57 -9q-49 -9 -66 -11q-13 -1 -17.5 -8.5t-15.5 -43.5q-13 -46 -29.5 -66t-41.5 -20q-58 0 -58 62q0 21 5 38q20 74 95 305q27 82 39.5 103t43.5 35z" />
    <glyph glyph-name="b" unicode="b" horiz-adv-x="445" 
d="M239 186q-23 19 -43 19q-14 0 -18.5 -3t-7.5 -16q-4 -22 -4 -60q0 -25 2.5 -33.5t9.5 -10.5q8 -2 13 -2q26 0 51 28q19 20 19 39q0 20 -22 39zM243 451q-16 13 -23 13q-3 0 -3 -3l-1 -7q-2 -7 -4.5 -20.5t-4.5 -24.5q-9 -47 -9 -61q0 -11 4.5 -13.5t16.5 -2.5
q29 0 41.5 8t16.5 29q1 4 1 12q0 45 -35 70zM166 591q8 4 21 4t51 -9q54 -14 86 -39t58 -76q20 -38 20 -74v-15q-2 -80 -37 -120q-5 -7 -5 -12q0 -6 12 -38q14 -34 14 -53q0 -4 -2 -22q-7 -53 -37 -96t-79 -67q-32 -16 -67 -16h-15q-92 3 -127 53q-10 14 -12.5 25.5
t-2.5 47.5v36q2 90 12 148q45 256 56 277q14 27 54 46z" />
    <glyph glyph-name="c" unicode="c" horiz-adv-x="516" 
d="M261 586q10 2 17 2q27 0 60.5 -12.5t50.5 -28.5q20 -19 20 -44q0 -23 -16.5 -39.5t-42.5 -16.5q-7 0 -11 1q-51 8 -63 8q-5 0 -9 -1t-7 -1.5t-7 -4t-6 -5t-8.5 -7.5t-9.5 -9q-35 -33 -47 -62t-12 -84q0 -42 2.5 -55t14.5 -30q29 -42 75 -42q60 0 96 44q31 35 53 35
q10 0 26 -7q35 -17 35 -52q0 -30 -25.5 -62.5t-70.5 -55.5q-34 -18 -49.5 -21t-60.5 -4q-44 0 -58.5 3t-42.5 18q-62 34 -106 115q-15 27 -15 115q0 59 9 90q20 72 68 127q24 27 66 53t74 33z" />
    <glyph glyph-name="d" unicode="d" horiz-adv-x="444" 
d="M236 383q-25 25 -46 33l-23 9l-5 -91q-1 -23 -1 -67q0 -131 12 -131q10 0 34.5 16t38.5 32q20 23 26.5 41.5t7.5 55.5v7q0 31 -9 50.5t-35 44.5zM79 553q13 5 35 5q63 0 114 -23q112 -52 157 -147q11 -23 13.5 -40.5t2.5 -67.5q0 -53 -3 -68.5t-21 -51.5
q-49 -97 -143 -134q-56 -21 -96 -21q-55 0 -83 38q-10 13 -11.5 45t-1.5 195q0 151 1.5 190t9.5 53q10 19 26 27z" />
    <glyph glyph-name="e" unicode="e" horiz-adv-x="418" 
d="M201 588q77 10 100 10q36 0 52 -16q19 -18 19 -40q0 -12 -6 -26q-11 -22 -36.5 -32.5t-84.5 -17.5q-52 -6 -60.5 -9t-10.5 -16q0 -2 -0.5 -4.5t-0.5 -3.5q0 -6 6.5 -7.5t32.5 -1.5q63 -1 91 -17t28 -51q0 -27 -20 -43q-13 -11 -25.5 -13.5t-56.5 -2.5h-63l3 -46
q5 -61 7 -80l4 -34l49 5q11 1 31 1q90 0 90 -59q0 -37 -23.5 -50t-95.5 -18q-34 -2 -46 -2q-69 0 -99 33q-19 19 -26 55.5t-15 143.5q-3 44 -3 91q0 160 20 200q10 21 38 31t101 20z" />
    <glyph glyph-name="f" unicode="f" horiz-adv-x="454" 
d="M172 588q15 2 58 2q124 0 148 -12q30 -16 30 -49q0 -20 -12.5 -37t-34.5 -24q-22 -6 -63 -6h-12q-12 0 -29 0.5t-22 0.5q-24 0 -29.5 -3t-5.5 -14v-6v-21l62 -3q95 -4 109 -41q6 -15 6 -27q0 -19 -18 -40l-19 -21l-66 3q-72 2 -81 3l-16 1l-4 -95q-6 -105 -9 -117
q-4 -23 -19.5 -37t-36.5 -14q-38 0 -51.5 20.5t-13.5 82.5q0 32 1 51q4 81 21 208.5t27 147.5q19 40 80 47z" />
    <glyph glyph-name="g" unicode="g" horiz-adv-x="552" 
d="M232 585q31 15 59 15q4 0 13 -0.5t15 -0.5q57 -4 92 -22q36 -17 49 -31.5t16 -38.5q1 -5 1 -14q0 -14 -17 -31q-21 -19 -41 -19q-19 0 -51 15q-34 16 -60 16q-17 0 -28 -5t-31 -24q-38 -36 -54.5 -67t-24.5 -81q-5 -33 -5 -52q0 -31 11.5 -49.5t40.5 -37.5q32 -22 70 -22
q24 0 41 11q13 8 31 41t18 53q0 7 -19 7q-20 0 -36 -1q-6 0 -16 -0.5t-14 -0.5q-20 0 -27.5 3t-20.5 15q-20 19 -20 44q0 40 27.5 52.5t111.5 12.5q88 -1 117 -21.5t29 -81.5q0 -49 -23.5 -107t-58.5 -94q-54 -57 -149 -57q-35 0 -50 3t-41 16q-40 20 -77 55t-51 66
q-15 34 -15 91v22q0 78 14 117q22 59 72.5 118.5t101.5 84.5z" />
    <glyph glyph-name="h" unicode="h" horiz-adv-x="510" 
d="M380 600q15 6 28 6q22 0 38 -16q13 -12 16 -26.5t5 -76.5q2 -52 2 -125q0 -49 -2 -133l-4 -173l-17 -17q-18 -18 -44 -18q-25 0 -43 18l-17 18l2 121l3 121l-31 -5q-27 -5 -88 -7l-57 -2v-99q0 -74 -2 -89.5t-14 -28.5q-16 -19 -46 -19q-17 0 -30 7q-22 12 -27.5 49
t-8.5 191q-1 48 -1 132q0 79 2 86q4 24 21.5 39.5t39.5 15.5q63 0 63 -90q0 -3 -0.5 -9t-0.5 -10l-2 -46l35 -2h9q27 0 81 6l56 7v66q0 54 7 76.5t27 32.5z" />
    <glyph glyph-name="i" unicode="i" horiz-adv-x="226" 
d="M89 564q18 12 36 12t34 -13q14 -12 19.5 -27t5.5 -48q0 -25 -5 -95q-10 -122 -10 -218q0 -90 -7 -116.5t-35 -37.5q-15 -6 -27 -6q-20 0 -40 20q-10 11 -12.5 27.5t-4.5 96.5v30q0 92 6.5 198.5t13.5 136.5q7 29 26 40z" />
    <glyph glyph-name="j" unicode="j" horiz-adv-x="480" 
d="M335 553q17 17 42 17q28 0 44 -20q12 -14 14.5 -28.5t2.5 -74.5q0 -222 -54 -338q-15 -34 -45.5 -66t-61.5 -45q-34 -15 -78 -15q-41 0 -69 14q-40 21 -62.5 62t-22.5 91q0 17 4 26t18 23q21 21 46 21t42 -21.5t17 -56.5q0 -36 29 -36q19 0 42 20q27 24 47 106.5
t21 172.5q0 74 5 104.5t19 43.5z" />
    <glyph glyph-name="k" unicode="k" horiz-adv-x="482" 
d="M95 563q15 12 39 12t39 -12q11 -8 14 -19.5t5 -54.5l3 -62l44 41q13 11 66 65q37 42 73 42q22 0 42 -18q18 -19 18 -42q0 -20 -15 -41q-17 -22 -90 -92l-74 -70l78 -79q76 -76 90 -98q11 -19 11 -35q0 -20 -16 -37q-11 -12 -19 -16t-26 -4q-21 0 -34 10t-77 73
q-82 82 -88 82q-3 0 -8 -66q-4 -58 -10.5 -77.5t-27.5 -30.5q-16 -8 -23 -8q-6 0 -21 5q-25 8 -36 34q-9 19 -9 48q0 30 4 86q12 228 20 288t28 76z" />
    <glyph glyph-name="l" unicode="l" horiz-adv-x="453" 
d="M77 527q12 6 25 6q24 0 42 -21.5t18 -53.5q1 -52 7.5 -174.5t9.5 -136.5l4 -21q31 2 93.5 4t93.5 4l20 -20q20 -20 20 -45q0 -15 -9 -26q-14 -19 -38.5 -25.5t-98.5 -12.5q-84 -7 -108 -7q-39 0 -55 9t-27 33q-13 29 -22.5 126.5t-9.5 207.5q1 100 5.5 120t29.5 33z" />
    <glyph glyph-name="m" unicode="m" horiz-adv-x="657" 
d="M192 533q20 10 26 10q5 0 26 -8q14 -6 24 -19.5t30 -53.5q26 -52 34 -56q3 -2 6 -2q8 0 46 33q75 67 102 80q16 8 30 8q21 0 37.5 -12.5t22.5 -33.5q6 -17 10 -125q5 -92 27 -261q1 -12 1 -27q0 -19 -17 -35q-17 -19 -36 -19q-16 0 -34 9.5t-22 20.5q-6 16 -18.5 92.5
t-17.5 130.5q-7 72 -9 74h-1q-5 0 -32 -22.5t-27 -26.5q0 -5 -27 -25q-25 -18 -43 -18q-9 0 -15 1q-25 2 -40.5 14t-30.5 39q-11 21 -16 21q-4 0 -15 -49q-32 -147 -47 -193.5t-32 -55.5q-10 -6 -30 -6q-23 0 -34 8q-24 18 -24 48q0 22 14 78q12 42 26 113q10 49 34.5 128.5
t37.5 105.5q14 24 34 34z" />
    <glyph glyph-name="n" unicode="n" horiz-adv-x="556" 
d="M421 515q14 7 27 7q22 0 38 -14q16 -15 21 -52t6 -150v-49q0 -102 -11 -150q-12 -53 -33 -74q-19 -21 -43 -21q-27 0 -64 32q-23 19 -96 131q-69 103 -77 103l-1 -1q-3 -6 -9 -68q-8 -102 -25.5 -141.5t-55.5 -39.5q-25 0 -41 19q-13 16 -13 36q0 23 10 103q2 17 8 71.5
t9 77.5q9 89 19 124t30 47t39 12q44 0 67 -54q7 -18 37 -64q9 -12 74 -114q49 -78 55 -78q4 0 4 50q0 14 -2 86q-2 76 -2 88q0 45 5.5 58.5t23.5 24.5z" />
    <glyph glyph-name="o" unicode="o" horiz-adv-x="561" 
d="M330 420q-20 3 -31 3q-19 0 -33 -10q-46 -31 -73 -78.5t-27 -93.5q0 -49 29 -79q16 -17 25.5 -20.5t36.5 -4.5h2q57 0 91.5 34.5t42.5 98.5q2 26 2 35q0 42 -27 85q-17 27 -38 30zM239 535q17 7 60 7q75 0 108 -15q22 -11 51 -55t46 -91q14 -42 14 -64q0 -3 -4 -53
q-5 -45 -10 -64.5t-20 -49.5q-22 -43 -44.5 -65t-61.5 -41q-60 -30 -121 -30q-91 0 -151.5 64t-61.5 169q0 38 24.5 102t55.5 104q14 18 51.5 45t63.5 37z" />
    <glyph glyph-name="p" unicode="p" horiz-adv-x="456" 
d="M267 446q-17 9 -59 9q-36 0 -42.5 -8t-6.5 -53q0 -25 2.5 -29.5t16.5 -4.5q29 0 68.5 23.5t39.5 40.5q0 12 -19 22zM134 570q14 4 68 4h21l74 -2l36 -24q78 -50 78 -135q0 -17 -2 -26q-8 -41 -75 -89.5t-125 -55.5l-34 -3v-105q0 -77 -2 -92.5t-13 -24.5q-15 -12 -32 -12
q-38 0 -57 37q-7 14 -7 76q0 59 -11 90q-10 25 -11 155v127l18 27q25 37 74 53z" />
    <glyph glyph-name="q" unicode="q" horiz-adv-x="586" 
d="M324 429q-24 7 -41 7q-24 0 -52 -25q-27 -23 -46 -58q-18 -31 -18 -78q0 -39 9.5 -61t34.5 -41q24 -19 60 -21h14q24 0 24 3t-16 31q-17 28 -17 51q0 26 20 43q21 17 33 17q15 0 35.5 -13.5t30.5 -30.5q11 -20 15 -20q12 0 12 56q0 32 -6 53q-6 22 -36.5 51t-55.5 36z
M219 547q26 9 59 9q48 0 98.5 -18t84.5 -49q82 -74 82 -197q0 -81 -38 -154l-18 -36l12 -18q12 -18 12 -43q0 -27 -14 -41q-17 -17 -41 -17q-32 0 -58 33q-10 12 -22.5 14t-77.5 3q-60 1 -79 4t-44 15q-56 27 -90 79t-40 120q-1 8 -1 23q0 87 50.5 166t124.5 107z" />
    <glyph glyph-name="r" unicode="r" horiz-adv-x="471" 
d="M275 436q-26 12 -50 12h-5q-39 -1 -45.5 -6.5t-6.5 -38.5v-5q0 -44 5 -44q8 0 52 10.5t58 15.5q23 8 23 29q0 6 -2 8q-4 6 -29 19zM127 557q33 12 93 12q48 0 75 -9q34 -12 66.5 -33.5t45.5 -41.5q21 -32 21 -72q0 -36 -16 -70t-45 -54q-28 -21 -28 -25q0 -7 27 -48
q51 -80 51 -118q0 -23 -17 -40q-16 -16 -38 -16q-44 0 -66 52q-5 13 -35 63.5t-47 75.5q-1 1 -18 -2l-18 -4l5 -67q1 -13 1 -37q0 -56 -14 -80.5t-45 -24.5q-38 0 -50 22t-16 98q-8 116 -12 162q-4 40 -4 87q0 79 11 109q13 37 73 61z" />
    <glyph glyph-name="s" unicode="s" horiz-adv-x="426" 
d="M188 556q30 14 64 14q74 0 112 -43q20 -23 20 -49q0 -23 -16 -39q-20 -20 -39 -20q-17 0 -37 13q-26 16 -41 16q-11 0 -21 -10q-13 -12 -13 -29q0 -21 18.5 -43.5t50.5 -37.5q69 -33 88 -96q9 -30 9 -49q0 -21 -10 -52q-10 -35 -42.5 -66.5t-65.5 -39.5q-15 -4 -39 -4
q-79 0 -116 26q-29 19 -46.5 47.5t-17.5 54.5q0 22 13 36q19 20 44 20q32 0 52 -32q17 -28 69 -28q17 0 24.5 8.5t7.5 29.5q0 17 -5.5 23.5t-35.5 20.5q-54 26 -88 79.5t-34 110.5q0 22 6 43q8 26 33 53t56 43z" />
    <glyph glyph-name="t" unicode="t" horiz-adv-x="449" 
d="M202 557q112 5 130 5q10 0 17 -0.5t11 -1t8 -2.5t5.5 -3t5.5 -4t6 -5q20 -16 20 -43q0 -54 -70 -63l-33 -4l5 -177q2 -112 2 -122q0 -57 -8 -73q-18 -33 -57 -33q-22 0 -38 21q-12 16 -14.5 39t-5.5 143q-4 169 -6 181l-4 20l-49 -3q-30 -2 -33 -2q-19 0 -34 14
q-16 16 -16 40q0 42 29 55t129 18z" />
    <glyph glyph-name="u" unicode="u" horiz-adv-x="456" 
d="M325 548q16 8 31 8q32 0 48 -30q9 -17 9 -86q0 -76 -11 -164t-27 -124q-21 -46 -48 -69.5t-77 -35.5q-25 -7 -38 -7t-33 7q-33 11 -64.5 41t-50.5 68l-21 43v126q0 128 5 150q5 26 23 41.5t40 15.5t39 -17q15 -17 17 -31v-74v-66q0 -17 -0.5 -41t-0.5 -31
q0 -38 2.5 -50.5t11.5 -25.5q16 -23 25 -28q8 -4 14 -4q24 0 38 21q10 15 20 89t12 148q2 67 9 91.5t27 34.5z" />
    <glyph glyph-name="v" unicode="v" horiz-adv-x="522" 
d="M391 523q13 10 32 10q23 0 39 -15t16 -44q0 -28 -69 -167q-81 -163 -114 -208t-71 -45q-39 0 -62 36.5t-53 146.5q-18 63 -44 150q-21 63 -21 87q0 20 15 37t44 17q20 0 33 -10q12 -8 32.5 -61t38.5 -122q3 -10 6 -22t5 -19t4 -15.5t3.5 -13t3.5 -8.5t4 -5.5t4 -1.5
q6 0 17 19t35 68q11 23 18 37q69 138 84 149z" />
    <glyph glyph-name="w" unicode="w" horiz-adv-x="747" 
d="M72 543q14 7 29 7q26 0 42 -14q23 -20 37 -126q23 -167 36 -207q1 -5 2 -6.5t2.5 -1.5t4 2.5t6.5 8.5q10 12 31 47q16 28 37.5 49t37.5 25q2 1 8 1q33 0 60 -29q14 -14 27 -56q20 -58 27 -58q1 0 1 1q5 7 93 209q33 79 51 102.5t42 23.5q35 -1 50 -30q7 -14 7 -27
q0 -25 -27 -88q-24 -50 -50.5 -114.5t-54.5 -124.5q-38 -85 -57 -107.5t-51 -22.5q-25 0 -44.5 17t-44.5 62q-30 55 -35 55t-41 -49q-28 -39 -46.5 -54t-41.5 -15q-9 0 -13 1q-30 5 -49.5 29.5t-36.5 80.5q-30 93 -51 245q-9 65 -13 80q-3 13 -3 26q0 42 28 58z" />
    <glyph glyph-name="x" unicode="x" horiz-adv-x="489" 
d="M364 554q9 3 20 3q18 0 36 -8t22 -19t4 -26q0 -30 -15 -46q-19 -20 -62 -86.5t-43 -74.5q0 -12 44 -63q77 -91 77 -124q0 -17 -19 -38q-20 -20 -37 -20q-29 0 -87 71q-44 55 -48 55q-3 0 -51 -70q-46 -70 -63 -82q-16 -12 -37 -12t-38 13t-21 34q-2 8 -2 12q0 10 11 29
t55 84q40 58 56 90v2q1 1 1 2q0 13 -25 44q-37 48 -66 100.5t-30 72.5q0 25 16.5 40.5t39.5 15.5q21 0 38 -14q18 -14 55 -76q38 -62 44 -62q4 0 46 62q53 81 79 91z" />
    <glyph glyph-name="y" unicode="y" horiz-adv-x="491" 
d="M59 542q17 17 44 17q16 0 29 -7q10 -5 45 -69q32 -62 46 -80q8 -11 14 -11q4 0 12 5q13 9 55 73q34 51 48.5 63.5t39.5 12.5q21 0 38 -18t17 -41q0 -22 -44.5 -89t-80.5 -98l-37 -33l-4 -96q-3 -67 -6.5 -83.5t-15.5 -28.5q-17 -18 -37 -18q-21 0 -41 19l-21 19l2 101
l1 100l-25 34q-32 43 -61.5 99.5t-31.5 80.5q-1 6 -1 16q0 17 15 32z" />
    <glyph glyph-name="z" unicode="z" horiz-adv-x="469" 
d="M109 540q14 13 24 16t44 3q59 0 201 -16q19 -2 33 -19.5t14 -38.5q0 -19 -20 -61.5t-44 -73.5q-43 -57 -90.5 -125t-47.5 -73q0 -3 36 -3q6 0 21 0.5t23 0.5l79 2l15 -18q15 -16 15 -36q0 -16 -14 -38q-14 -20 -35 -27t-76 -7q-41 0 -67 1q-92 3 -117.5 9t-42.5 28
q-14 19 -14 36q0 27 35 71q16 19 101 137.5t85 120.5q0 1 -62 5q-65 3 -89.5 18t-24.5 50q0 20 18 38z" />
    <glyph glyph-name="braceleft" unicode="{" horiz-adv-x="514" 
d="M243 796q16 22 50.5 37t76.5 15h3q44 0 69.5 -20t25.5 -47q0 -25 -22 -44.5t-63 -23.5l-36 -3l-8 -38q-8 -40 -15 -132q-7 -106 -22 -146.5t-60 -73.5q-31 -22 -33 -29q0 -4 18 -26q60 -72 61 -284v-63l28 -7q28 -8 41 -8q26 0 50.5 -25t24.5 -51q0 -13 -20.5 -33
t-37.5 -24q-1 0 -4 -0.5t-5 -0.5q-28 0 -80 13.5t-69 26.5q-36 26 -50.5 72.5t-14.5 136.5q0 92 -10 126t-46 71q-40 39 -46 61q-3 9 -3 19q0 48 97 116q28 19 36 38t8 66q0 69 18 160t38 121z" />
    <glyph glyph-name="bar" unicode="|" horiz-adv-x="216" 
d="M84 794q13 7 27 7q26 0 47 -23l18 -20v-933l-18 -19q-18 -19 -45 -19q-21 0 -38 12.5t-22 32.5q-4 19 -8 226.5t-4 386.5q0 97 1 129q2 77 3.5 112t6.5 60.5t11 32.5t21 15z" />
    <glyph glyph-name="braceright" unicode="}" horiz-adv-x="533" 
d="M128 843q21 20 36 20q4 0 18 -2q36 -4 76.5 -26t58.5 -48q36 -53 36 -225v-12v-20q0 -53 5 -63q9 -15 57 -51q44 -32 58.5 -52t14.5 -47q0 -17 -7.5 -30t-33.5 -40q-46 -50 -51 -56q-16 -22 -30 -183q-9 -118 -40 -161.5t-119 -62.5q-47 -10 -85 -10q-36 0 -50 10
q-25 18 -25 54q0 37 24 52q18 12 73 19q57 9 69 16q23 11 23 101q0 48 12 116t25 94q11 23 33 55l18 25l-48 45q-48 46 -48 47q-2 5 -6 154v17q-4 114 -12 131q-6 14 -32 18q-2 1 -5 1l-5 1q-29 4 -46 22t-17 41q0 27 23 50z" />
    <glyph glyph-name="asciitilde" unicode="~" horiz-adv-x="595" 
d="M163 402q24 3 46 3q66 0 130 -42q26 -19 49 -19q21 0 41 17q34 28 64 28q28 0 45 -23q13 -16 13 -37q0 -46 -60 -86q-49 -33 -107 -33q-59 0 -109 34q-40 26 -73 26q-27 0 -50 -16q-27 -18 -49 -18q-20 0 -39 16q-21 18 -21 45q0 35 34.5 66.5t85.5 38.5z" />
    <glyph glyph-name="nbsp" unicode="&#xa0;" 
 />
    <glyph glyph-name="guillemotleft" unicode="&#xab;" horiz-adv-x="617" 
d="M458 550q13 8 41 10q26 0 41.5 -15t15.5 -41q0 -23 -18 -55t-66 -96q-39 -51 -39 -58t69 -80q69 -75 69 -103q0 -17 -17 -39q-14 -18 -30 -18q-3 0 -21 2q-27 2 -41 12t-63 62q-65 69 -87.5 102.5t-22.5 62.5t13 51q25 40 85.5 118.5t70.5 84.5zM241 570q15 11 39 11
q31 0 49 -19q16 -17 16 -35q0 -8 -1 -13q-3 -21 -20 -45t-87 -106q-49 -58 -49 -64q0 -8 63 -76q55 -59 75.5 -88t20.5 -48q0 -16 -18 -37t-48 -21q-22 0 -36 10.5t-69 69.5q-73 78 -102.5 120.5t-29.5 74.5q0 20 13 44q12 23 90 117.5t94 104.5z" />
    <glyph glyph-name="guillemotright" unicode="&#xbb;" horiz-adv-x="604" 
d="M63 535q19 19 42 19q28 0 53 -28q36 -40 94.5 -113t71.5 -93q19 -28 19 -59q0 -33 -20 -63q-29 -44 -96 -116t-85 -78q-14 -4 -21 -4q-25 0 -43.5 18t-18.5 45q0 18 9 33t44 53q91 102 92 111q0 4 -57 72q-65 77 -83.5 105t-18.5 52q0 29 18 46zM295 555q11 11 34 11
q32 0 49 -16q37 -32 104.5 -133.5t74.5 -137.5q4 -22 4 -30q0 -25 -14.5 -54t-54.5 -89q-52 -77 -70 -95t-45 -18t-44 16.5t-17 41.5q0 14 6 29q7 17 57 92q48 69 48 79q0 6 -46 74t-77 107q-33 42 -33 73q0 26 24 50z" />
    <glyph glyph-name="afii57929" unicode="&#x2bc;" horiz-adv-x="238" 
d="M116 115q13 5 24 5q23 0 41 -20q14 -16 14 -46q0 -35 -18 -107q-19 -74 -35 -87q-17 -14 -37 -14q-39 0 -55 38q-5 12 -5 26q0 25 17 100q22 92 54 105z" />
    <glyph glyph-name="afii10023" unicode="&#x401;" horiz-adv-x="645" 
d="M254 741q94 4 194 4q73 0 93.5 -2.5t32.5 -11.5q26 -19 26 -47q0 -27 -26 -46q-13 -10 -39 -11.5t-155 -3.5q-163 -2 -175 -7q-5 -4 -7 -9q-2 -9 -7 -56.5t-5 -66.5q0 -8 1 -8q1 -1 115 -5q88 -3 118.5 -10.5t41.5 -27.5q6 -12 6 -30q0 -17 -6 -29q-8 -15 -26.5 -20
t-66.5 -5q-42 0 -71 1t-77 1q-44 0 -46 -2q-6 -6 -8 -181l-2 -177l36 -1h34q98 0 158 1h77q56 0 71 -2.5t28 -11.5q28 -18 28 -46q0 -13 -6 -25q-12 -26 -45.5 -31t-209.5 -6h-85q-65 0 -95.5 1t-51 9t-26 15.5t-16.5 30.5q-10 22 -13 47t-5 110q-1 23 -1 66q0 59 3 114
t10 132.5t9 113.5q6 88 14.5 128t27.5 62q20 24 47.5 32t99.5 11zM215 896q17 17 40 17t39.5 -15.5t16.5 -40.5q0 -36 -20.5 -60t-47.5 -24q-19 0 -35 13q-22 16 -22 46q0 35 29 64zM444 916q14 7 30 7q24 0 41 -16t17 -41q0 -34 -22 -57t-50 -23q-23 0 -38 15
q-16 15 -16 39q0 22 11.5 45t26.5 31z" />
    <glyph glyph-name="afii10053" unicode="&#x404;" horiz-adv-x="738" 
d="M410 790q39 13 63 13q23 0 91 -11q66 -11 86 -18.5t30 -23.5t10 -33q0 -23 -18 -41q-17 -17 -34 -17q-16 0 -86 12q-59 9 -74 9q-17 0 -37 -7q-132 -45 -210 -168q-46 -72 -46 -105q0 -5 2 -7q3 -3 166 -7l160 -4l18 -17q18 -18 18 -39q0 -24 -22 -43l-21 -18l-170 1
l-170 2l-4 -21q-2 -12 -2 -20q0 -28 18 -106q12 -53 43 -100t71 -73q26 -17 41 -21t63 -7q14 -1 37 -1q71 0 131 38q35 23 58 23q20 0 38 -18t18 -38q0 -28 -33 -56.5t-94 -50.5q-45 -17 -105 -17h-28q-78 1 -116.5 10.5t-82.5 39.5q-34 23 -47.5 37t-46.5 62
q-31 47 -41.5 70t-23.5 80q-16 66 -16 145q1 271 170 434q40 39 84 64t112 48z" />
    <glyph glyph-name="afii10055" unicode="&#x406;" horiz-adv-x="229" 
d="M109 771q10 5 20 5q18 0 33.5 -11.5t22.5 -29.5q2 -6 2 -34q0 -55 -6 -159q-9 -176 -9 -283q0 -78 -6 -212t-11 -154q-4 -21 -20 -33t-36 -12q-22 0 -39 14l-18 15l1 82q1 86 8.5 335.5t12.5 336.5q5 79 12.5 103t32.5 37z" />
    <glyph glyph-name="afii10056" unicode="&#x407;" horiz-adv-x="417" 
d="M178 682q17 14 44 14q16 0 28 -6q24 -14 24 -64q0 -12 -4 -64q-8 -97 -10 -377q-2 -195 -4 -248t-8 -65q-16 -31 -50 -31q-24 0 -42 18l-19 18v215v33q0 171 6 330t13 187q5 25 22 40zM88 851q17 8 29 8q11 0 26 -8q32 -16 32 -52q0 -24 -16 -44.5t-43 -24.5
q-5 -1 -12 -1q-14 0 -34 20q-22 22 -22 38q0 19 11.5 37.5t28.5 26.5zM279 867q12 3 24 3q24 0 42.5 -13t22.5 -34q1 -4 1 -12q0 -26 -30 -56q-21 -21 -47 -21q-21 0 -37 14t-20 39q-1 3 -1 10q0 22 13.5 43.5t31.5 26.5z" />
    <glyph glyph-name="afii10017" unicode="&#x410;" horiz-adv-x="799" 
d="M450 538q-7 47 -12 52h-1q-7 0 -17 -28q-10 -23 -40 -107t-36 -104q-1 -2 -1 -5q0 -5 7 -5q1 0 19 2q2 0 16 1.5t32 3t36 3.5t30 4t12 3l-19 67q-19 70 -26 113zM395 787q19 16 34 16q11 0 18 -1q31 -3 46 -12q16 -10 38.5 -74.5t38.5 -146.5q12 -67 47.5 -188t38.5 -132
q18 -69 32 -107q18 -47 39.5 -126.5t24.5 -108.5q1 -8 1 -19q0 -16 -15 -30q-17 -17 -38 -17q-22 0 -39 16q-27 22 -49 110q-6 21 -36.5 120t-36.5 121l-8 27l-54 -4q-9 -1 -34.5 -2.5t-47.5 -3t-38 -2.5l-64 -4l-17 -45q-9 -23 -48 -128q-37 -100 -57 -140.5t-37 -48.5
q-18 -9 -32 -9q-18 0 -34 12q-21 16 -21 40q0 25 22 72q25 54 33 81q6 20 40 108.5t39 103.5q10 33 44 117q29 74 50 135q24 77 64 166t56 104z" />
    <glyph glyph-name="afii10018" unicode="&#x411;" horiz-adv-x="684" 
d="M415 259q-45 17 -116 17q-57 0 -94 -12l-40 -13l4 -33q3 -31 9 -144t12 -124q8 -13 50 -18q6 -1 21 -1q42 0 95 9t76 21q40 20 63.5 61.5t23.5 88.5q0 30 -11 60q-22 60 -93 88zM349 834q80 7 110 7q46 0 68.5 -9t32.5 -30q8 -18 8 -24q0 -8 -6 -21q-8 -22 -21 -28
q-9 -4 -84 -10q-99 -6 -241 -21l-42 -3l-6 -150q-4 -102 -4 -112q0 -30 3.5 -40.5t14.5 -10.5q10 0 28 6q30 10 91 10q49 0 84 -7q45 -8 93 -29t75 -44q35 -32 61.5 -92.5t26.5 -109.5q0 -24 -13.5 -79t-25.5 -77q-11 -22 -49.5 -57t-66.5 -48q-84 -42 -224 -42
q-59 0 -98 11q-33 10 -50.5 22t-30 41t-17.5 70t-9 118q-2 40 -6 99.5t-6 102t-2 86.5q0 49 3 114q5 102 5 171v16v46q0 34 3.5 45t17.5 27q13 15 24.5 19.5t43.5 9.5q144 18 209 23z" />
    <glyph glyph-name="afii10019" unicode="&#x412;" horiz-adv-x="617" 
d="M344 280q-43 15 -118 15q-14 0 -24 -2q-10 -4 -22 -144q-15 -184 -15 -205q0 -5 0.5 -8.5t0.5 -6t1 -4.5t1.5 -2.5t2 -1.5t2.5 -1t3 -0.5t3 -0.5t3.5 -0.5t4.5 -0.5q24 0 75.5 13t85.5 29q34 15 53.5 34.5t33.5 52.5q19 41 19 73q0 16 -5 43q-5 29 -11.5 40.5t-29.5 33.5
q-32 32 -64 43zM279 666q-37 17 -45 17q-4 0 -8 -35.5t-8 -81.5t-4 -47q-8 -67 -8 -80q0 -17 9 -17q1 0 3 0.5t3 0.5q45 6 90.5 37.5t55.5 63.5q4 16 4 25q0 34 -25 66t-67 51zM157 811q18 8 31 8q21 0 84 -22q108 -39 150 -81q21 -21 40 -58.5t26 -73.5q3 -15 3 -31
q0 -41 -15.5 -82t-40.5 -65q-18 -18 -18 -21q0 -4 32 -25q100 -64 121 -201q4 -20 4 -44q0 -54 -37 -134q-28 -57 -56.5 -83t-89.5 -50q-53 -20 -113 -36t-85 -16q-22 0 -68.5 13t-56.5 22q-24 21 -24 88q0 24 1 38q6 152 39 479q17 161 22 238q6 71 16 98t35 39z" />
    <glyph glyph-name="afii10020" unicode="&#x413;" horiz-adv-x="633" 
d="M392 787q81 14 119 16h10q28 0 46 -18q19 -21 19 -39t-18 -38q-12 -15 -29.5 -20t-93.5 -18q-110 -19 -175 -26q-47 -5 -59.5 -8.5t-14.5 -11.5q-3 -13 -5 -295q-3 -280 -10 -308q-8 -31 -10 -86q-2 -52 -7 -67t-23 -24t-31 -9q-21 0 -43 23l-22 23l4 67q6 70 12 95
q6 23 11 336q3 211 5.5 263t9.5 65q13 24 43.5 36.5t98.5 20.5q93 11 163 23z" />
    <glyph glyph-name="afii10021" unicode="&#x414;" horiz-adv-x="1016" 
d="M581 347q-7 66 -21 153l-11 66l-9 -22q-32 -62 -54 -133q-19 -62 -33 -95q-20 -48 -50.5 -147t-30.5 -115q0 -10 185 -10q66 0 66 3q-1 25 -11 105.5t-14 89.5q-6 14 -17 105zM512 728q21 12 59 12q40 0 58 -16q17 -14 25 -39.5t17 -95.5l11 -77t12 -88.5t9 -75.5
q3 -42 13 -83q5 -16 16 -99t12 -111q0 -5 91 -5h92q7 -6 20.5 -18.5t20.5 -18.5l2 -82q1 -21 1 -49q0 -34 -13 -50q-15 -16 -38 -20q-5 -1 -13 -1q-12 0 -31 16q-14 12 -17.5 21t-5.5 38l-3 42l-267 -1h-77q-197 0 -257 4l-68 5l-4 -29q-15 -87 -42 -101q-18 -9 -32 -9
q-20 0 -39 19q-17 16 -17 31q0 3 2 27q1 11 6 44.5t7 47.5q8 54 28.5 73.5t70.5 19.5q19 0 30 -1l50 -4l46 148q49 156 57 171q12 23 26 70q19 65 76 188q19 42 19 45q0 8 16 25.5t31 26.5z" />
    <glyph glyph-name="afii10022" unicode="&#x415;" horiz-adv-x="637" 
d="M264 787q2 1 35 1q32 0 89 -1t101 -1.5t45 -0.5q15 0 36 -17q20 -17 20 -40q0 -39 -26 -51.5t-111 -12.5q-7 0 -22 0.5t-24 0.5h-44q-189 0 -194 -16q-2 -10 -6 -88l-3 -81l134 4l134 5l18 -17q18 -18 18 -43q0 -23 -17 -40q-15 -13 -40.5 -17t-120.5 -9
q-129 -5 -129 -20q0 -2 1 -27.5t2 -72t2 -91.5q2 -183 7 -193q4 -9 19 -9q13 0 24 1q53 5 162 8l124 4l21 -18q20 -16 20 -39q0 -41 -26.5 -52.5t-128.5 -15.5q-125 -4 -179 -7q-46 -2 -50 -2q-26 0 -50 14q-27 16 -39 34t-16 49q-9 65 -9 443q0 151 3 214q5 98 12.5 125
t35.5 48q13 10 29.5 14t63.5 9q71 5 79 8z" />
    <glyph glyph-name="afii10024" unicode="&#x416;" horiz-adv-x="1055" 
d="M113 723q10 1 21 4h1q21 0 72.5 -52.5t77.5 -100.5q24 -43 41.5 -113t18.5 -122q0 -3 28 -3h18l46 2l3 143q3 114 9.5 147.5t29.5 50.5q16 11 36 11q23 0 42 -16q15 -15 15 -30q0 -9 -1 -16q-5 -36 -8 -158l-4 -129h70q71 0 76 8q6 6 17 49q23 88 79 180t102 115
q17 9 43 9q23 0 34 -7q10 -6 19 -23.5t9 -31.5q0 -6 -1 -9q-4 -14 -17 -28.5t-21 -14.5q-11 0 -38 -34.5t-49 -77.5q-31 -58 -52.5 -146.5t-21.5 -153.5q0 -75 20 -135t56 -87q44 -35 44 -74t-42 -51q-5 -2 -16 -2q-30 0 -85 59q-29 31 -40.5 49t-24.5 53q-33 90 -33 180v53
h-131l-4 -43q-4 -31 -10 -139q-5 -91 -18 -119.5t-49 -28.5q-32 0 -45.5 22t-13.5 76q0 30 5 88q3 32 9 98l4 39h-94l-11 -48q-33 -146 -140 -289q-50 -68 -83 -68q-22 0 -43 26q-16 19 -16 35q0 23 53 90q34 43 63.5 101.5t42.5 111.5q14 52 14 143v30q0 64 -15 110
q-12 38 -39.5 82t-52.5 64q-40 34 -40 66q0 17 12.5 34.5t27.5 20.5z" />
    <glyph glyph-name="afii10025" unicode="&#x417;" horiz-adv-x="636" 
d="M310 793q43 10 77 10q41 0 79 -12q26 -8 39 -16.5t31 -28.5q57 -63 57 -148q0 -36 -17 -69.5t-56 -76.5l-36 -38l26 -28q50 -56 68 -130q12 -48 12 -88q0 -42 -15 -89q-22 -70 -45 -102.5t-72 -69.5q-46 -34 -87.5 -47t-103.5 -13q-54 0 -77.5 7.5t-68.5 37.5
q-50 33 -62.5 47.5t-12.5 39.5q1 61 52 61q18 -1 31.5 -7t43.5 -29l47 -37h50q43 0 73.5 13t66.5 46q31 29 45 71q15 42 15 69q0 47 -25.5 98.5t-57.5 67.5q-19 10 -61 16q-73 9 -73 58q0 27 14 42t51 26q39 11 81 38t57 50q14 21 14 41q0 22 -15 46.5t-32 28.5q-16 4 -29 4
q-44 0 -90 -18q-23 -10 -44 -10q-45 0 -53 50q-1 4 -1 12q0 12 14 29q30 34 90 48z" />
    <glyph glyph-name="afii10026" unicode="&#x418;" horiz-adv-x="677" 
d="M547 723q22 11 28 11q4 0 26 -10q20 -9 27 -22.5t7 -48.5q0 -22 -7 -115q-11 -132 -11 -373q0 -195 -5 -229t-34 -44q-5 -2 -16 -2q-38 0 -54 28q-8 15 -12 255l-3 241l-19 -34q-15 -29 -52 -84q-32 -47 -54 -96q-21 -43 -68 -115l-84 -126q-38 -57 -53 -61
q-16 -6 -33 -6q-49 0 -67 46q-21 52 -21 301q0 39 2 121q1 39 6 247q0 61 5.5 82.5t22.5 31.5q12 6 28 6q26 0 43 -15q11 -10 14.5 -22.5t6.5 -57.5q1 -15 1 -59q0 -54 -3 -99q-7 -94 -7 -226q0 -110 5 -128q2 -6 4 -6q6 0 37 47q41 61 58 102q19 42 46 83q74 112 111 188
q13 26 38.5 63t40.5 67q24 48 46 59z" />
    <glyph glyph-name="afii10027" unicode="&#x419;" horiz-adv-x="677" 
d="M94 728q13 5 23 5q23 0 40 -19.5t21 -53.5q2 -20 2 -71q0 -162 -9 -340l-3 -76l21 35q117 186 193 292q56 77 80 117q22 38 53 71q21 21 30 27t23 6q23 0 40 -14t23 -38q3 -12 3 -25q0 -23 -10 -86q-11 -66 -11 -124q0 -32 5 -202q8 -266 8 -270v-9q0 -20 -16 -34
q-18 -15 -40 -15t-39.5 13t-22.5 36q-1 6 -10 238t-9 235q0 10 -3 10q-4 0 -30 -37q-48 -71 -71 -103q-16 -22 -27 -37.5t-21 -32.5t-15 -26t-18.5 -34.5l-22.5 -42.5q-34 -63 -71.5 -119t-52.5 -68q-16 -13 -39 -13q-26 0 -42 15q-34 28 -34 160q0 63 6 159q5 98 9 269
q2 94 4.5 130.5t9 50.5t23.5 21zM364 836q49 31 72 31q19 0 37 -18q19 -19 19 -39q0 -35 -67 -80q-46 -31 -73 -31q-21 0 -36 18q-16 19 -16 39q0 38 64 80z" />
    <glyph glyph-name="afii10028" unicode="&#x41a;" horiz-adv-x="618" 
d="M121 753q16 19 41 19q22 0 39 -12t20 -30v-10q0 -32 -6 -114t-12 -121q-3 -24 2 -22t86 90q79 88 98 105q19 19 44 49q29 33 49 37q4 1 11 1q19 0 34.5 -12t22.5 -32q3 -12 3 -18q0 -12 -13 -34q-16 -26 -106 -122q-104 -109 -133 -141l-43 -49l38 -53q29 -41 62 -82
q29 -35 44 -59q17 -25 77.5 -87.5t68.5 -62.5q6 0 17 -20q7 -14 7 -29q0 -25 -18.5 -43.5t-46.5 -18.5q-20 0 -31.5 7.5t-47.5 43.5q-87 86 -149 171q-13 19 -57 76l-38 49l-4 -25q-4 -23 -9 -132q-4 -109 -7 -127q-3 -22 -19.5 -38t-36.5 -16q-64 0 -64 84q0 3 0.5 9.5
t0.5 10.5q3 35 9 150q4 65 10 135t13.5 154.5t11.5 134.5q10 117 14.5 142.5t17.5 41.5z" />
    <glyph glyph-name="afii10029" unicode="&#x41b;" horiz-adv-x="792" 
d="M445 732q19 9 29 9q11 0 30 -12q33 -20 47 -82q5 -23 29 -89q15 -41 38 -127t33 -118q13 -41 36 -134.5t37 -137.5q22 -70 22 -84q0 -15 -16 -35q-17 -20 -43 -20q-21 0 -38 15q-13 13 -39.5 91t-40.5 144q-14 68 -32 125q-12 39 -37 133q-29 114 -42 114q-1 0 -2 -1
q-5 -6 -54 -96.5t-65 -125.5q-86 -181 -136 -272q-19 -33 -33 -65q-16 -36 -37 -47q-16 -7 -27 -7q-31 0 -48 30q-9 16 -9 25q0 10 4 23q8 31 101 211q54 103 70 144q17 38 34 66q27 43 74 140q50 102 73 138.5t42 44.5z" />
    <glyph glyph-name="afii10030" unicode="&#x41c;" horiz-adv-x="931" 
d="M645 704q32 26 55 26q22 0 38 -21q17 -21 20 -33q7 -27 18 -91.5t20 -96.5q12 -53 34 -203q19 -133 42 -247q13 -67 13 -86q0 -26 -18 -43q-14 -13 -34 -13q-21 0 -39.5 14.5t-25.5 38.5q-9 30 -29 142t-32 196q-32 231 -47 248h-1q-5 0 -42 -39.5t-73 -84.5
q-41 -50 -85 -50q-45 0 -74 51q-59 102 -66 102h-1q-4 0 -14.5 -40t-69.5 -275q-74 -290 -79 -300q-6 -12 -21 -20t-32 -8q-15 0 -35.5 17.5t-20.5 33.5q0 38 128 529q14 53 36 120t34 90q10 19 26 34t30 18q3 1 10 1q41 0 68 -37q10 -13 38.5 -74t38.5 -73l16 -19l27 32
q3 3 25 28.5t33 37.5q15 16 30 34t27.5 31t31.5 30z" />
    <glyph glyph-name="afii10031" unicode="&#x41d;" horiz-adv-x="610" 
d="M456 735q11 7 27 7q26 0 44 -18l17 -18l3 -296q4 -384 21 -498q0 -2 0.5 -5t0.5 -5q0 -27 -19.5 -47.5t-43.5 -20.5q-16 0 -29 10q-16 13 -24 28q-14 28 -25 361q-2 73 -4 91.5t-8 18.5q-3 0 -5 -1q-8 -3 -93 -11q-11 -1 -116 -11l-38 -4q-1 -70 -3 -209t-3 -209l-15 -17
q-15 -17 -42 -17q-16 0 -29 7q-22 12 -26.5 53t-4.5 245q0 459 22 513q17 40 55 40q1 0 4 -0.5t5 -0.5q27 -5 35.5 -18.5t8.5 -60.5q0 -35 -1 -58q-4 -106 -7 -126l-4 -21l43 4q12 2 94 9.5t104 12.5l23 5l3 116q2 89 7.5 115t22.5 36z" />
    <glyph glyph-name="afii10032" unicode="&#x41e;" horiz-adv-x="826" 
d="M550 644q-34 17 -90 20h-14q-95 0 -135 -28q-41 -31 -90 -101q-37 -53 -46 -88.5t-9 -124.5t7.5 -121t38.5 -73q33 -43 53 -54t81 -19q40 -5 63 -5q43 0 75 14t68 48q51 47 82 129.5t31 169.5q0 36 -6 69q-22 123 -109 164zM347 775q58 10 105 10q57 0 95 -12
q124 -36 183 -136q21 -34 30.5 -62.5t17.5 -84.5q6 -42 6 -83q0 -135 -66 -270q-80 -159 -243 -200q-34 -9 -61 -9q-31 0 -92 10q-78 11 -121.5 34.5t-81.5 75.5q-42 57 -58.5 113t-16.5 146q0 6 0.5 19.5t0.5 20.5q3 92 18 140t62 118q58 86 105 122t117 48z" />
    <glyph glyph-name="afii10033" unicode="&#x41f;" horiz-adv-x="705" 
d="M438 773q72 4 92 4q108 0 128 -41q7 -15 7 -290v-139l-1 -412l-17 -15q-18 -15 -39 -15t-39 15l-17 15l-5 145q-3 77 -3 233q0 102 1 148l3 238l-68 -3q-53 -3 -171.5 -17.5t-123.5 -18.5q-12 -14 -18 -454q-2 -196 -7 -236.5t-27 -52.5q-14 -7 -28 -7q-25 0 -45 18
l-18 16l4 256q7 481 29 529q10 24 31.5 38t45.5 14q27 0 120 14q71 10 166 18z" />
    <glyph glyph-name="afii10034" unicode="&#x420;" horiz-adv-x="590" 
d="M386 678q-21 13 -75 13q-46 -1 -66.5 -8t-46.5 -32q-22 -20 -26.5 -42t-7.5 -119l-3 -84l61 2q60 2 101 21q72 32 92 99q10 31 10 63q0 64 -39 87zM258 810q33 5 57 5q73 0 128 -31t80 -88q22 -47 22 -106q0 -62 -24 -120.5t-66 -96.5q-86 -77 -236 -89l-54 -5l4 -89
q3 -68 11 -128q3 -21 3 -52q0 -98 -15 -130q-15 -34 -50 -34q-23 0 -41 18q-15 16 -17.5 31t-3.5 96q-2 83 -9 268q-5 133 -5 205q0 140 14 188q16 53 76.5 100.5t125.5 57.5z" />
    <glyph glyph-name="afii10035" unicode="&#x421;" horiz-adv-x="702" 
d="M390 786q42 11 76 11q3 0 10.5 -0.5t11.5 -0.5q89 -4 141 -50q20 -17 24.5 -25t4.5 -26q0 -27 -14 -41q-20 -18 -38 -18q-16 0 -47 17q-33 19 -61 19q-20 0 -35 -1q-54 -2 -90.5 -17t-72.5 -48q-44 -41 -78.5 -107t-48.5 -134q-6 -31 -6 -76q0 -89 19 -137
q13 -33 49.5 -72t74.5 -62q28 -17 66 -17h17q101 0 159 47q29 23 50 23q12 0 29 -10q26 -16 26 -45q0 -48 -56 -81q-92 -56 -210 -56q-42 0 -73 8q-40 10 -70.5 28t-80.5 63q-33 28 -46.5 45.5t-29.5 51.5q-29 60 -38 96.5t-9 93.5v13q0 73 14 126q84 315 332 382z" />
    <glyph glyph-name="afii10036" unicode="&#x422;" horiz-adv-x="696" 
d="M133 785q50 0 197 11.5t204 12.5l72 1l21 -22q22 -22 22 -41q0 -17 -15 -35q-11 -14 -25 -17t-84 -7q-71 -4 -94 -7.5t-31.5 -10.5t-11.5 -29q-4 -29 -4 -233q0 -215 4 -342q3 -69 3 -108q0 -52 -6.5 -67.5t-27.5 -24.5q-9 -4 -22 -4q-32 0 -51 28q-9 13 -11.5 41.5
t-5.5 150.5q-5 158 -5 379v206l-90 -1l-91 -3l-17 20q-17 20 -17 38q0 20 22 42q15 15 24.5 18.5t39.5 3.5z" />
    <glyph glyph-name="afii10037" unicode="&#x423;" horiz-adv-x="664" 
d="M65 748q20 18 35 18q17 0 36 -14t32 -36q42 -72 121 -188t88 -116q5 0 25.5 44t28.5 71q17 54 45 116t43 77q23 21 42 21t38 -19q18 -18 18 -39q0 -23 -29 -92q-27 -65 -43 -110q-20 -58 -155 -353q-32 -69 -32 -78q0 -14 -31.5 -72t-44.5 -69q-20 -17 -41 -17t-38 17
q-15 15 -15 30q0 10 1 16q2 21 19 62t74 166q35 76 35 87q0 16 -52 84q-48 63 -118.5 168t-85.5 135t-15 51q0 22 19 40z" />
    <glyph glyph-name="afii10038" unicode="&#x424;" horiz-adv-x="790" 
d="M345 581q1 16 1 42q0 35 -3 35l-50 -22q-75 -35 -109 -108q-17 -36 -17 -90q0 -52 13 -70q12 -16 50 -31.5t75 -18.5l36 -4v95q0 116 4 172zM566 649q-42 15 -73 15q-17 0 -22 -6q-4 -7 -8 -168q-2 -104 -2 -113q0 -48 7 -48q11 0 53 21q59 29 85 68t28 104v16
q0 36 -14 65q-11 21 -20 28.5t-34 17.5zM336 781q27 8 85 8q69 0 113 -11q98 -24 133 -47.5t60 -83.5q19 -44 19 -90v-21q0 -47 -3 -92q-3 -33 -27.5 -76t-55.5 -71t-58.5 -43t-86.5 -37l-57 -20l3 -136l2 -135l-18 -21q-17 -20 -42 -20q-39 0 -56 43q-6 16 -6 131
q0 114 -4 126q-4 10 -27 10q-47 0 -144 39q-60 26 -88.5 69.5t-32.5 120.5q-1 10 -1 28q0 32 9 63q19 66 59.5 125t86.5 85q58 34 137 56z" />
    <glyph glyph-name="afii10039" unicode="&#x425;" horiz-adv-x="728" 
d="M85 783q12 8 34 8q24 0 38.5 -16.5t32.5 -63.5q15 -41 78.5 -168t73.5 -138q3 -3 6 -3q7 0 27 34q129 209 175 268q35 43 72 43q15 0 37 -21.5t22 -35.5q0 -13 -9.5 -32t-15.5 -19q-9 0 -115.5 -167t-106.5 -181q0 -7 28 -54q100 -169 131 -219q49 -79 57 -101
q3 -9 3 -17q0 -22 -17.5 -39t-40.5 -17q-9 0 -18 3q-19 6 -36 27t-53 84q-22 38 -49 79q-1 1 -19.5 36t-37 64.5t-24.5 29.5q-9 0 -66 -86q-127 -192 -159 -212q-13 -8 -27 -8q-29 0 -46 22q-13 16 -13 34q0 29 34 73q42 54 118.5 169t76.5 123q0 10 -18 33
q-13 17 -51.5 83.5t-38.5 73.5q0 8 -35 74q-72 143 -72 188q0 30 24 49z" />
    <glyph glyph-name="afii10040" unicode="&#x426;" horiz-adv-x="769" 
d="M64 761q16 18 42 18q15 0 29 -8q19 -11 24.5 -41.5t5.5 -139.5v-54v-25q0 -152 6.5 -319.5t13.5 -184.5q5 -12 19 -12q13 0 23 1q32 3 116 7l80 4l4 266q6 313 9 355q3 62 6 76.5t17 28.5q19 21 44 21q21 0 39 -18l17 -18l-4 -111q-3 -96 -7 -356l-4 -244l74 -3
q55 -2 66.5 -4t22.5 -15q16 -19 16 -38q0 -21 -17 -38q-14 -14 -33 -19t-63 -5q-29 0 -48 1q-12 1 -46 1q-94 0 -186 -6q-128 -6 -159 -6q-5 0 -11.5 0.5t-7.5 0.5q-54 8 -79 77q-12 35 -21.5 208.5t-9.5 340.5q0 59 1 86l4 155z" />
    <glyph glyph-name="afii10041" unicode="&#x427;" horiz-adv-x="586" 
d="M88 788q20 23 42 23q21 0 40 -19q18 -18 18 -37q0 -11 -10 -59q-9 -43 -11 -158v-36q0 -50 4.5 -71t15.5 -32t41 -26q26 -13 41.5 -16t55.5 -3q57 0 69 4q7 2 8.5 33.5t1.5 153.5q0 154 6 186.5t36 44.5q13 6 22 6q8 0 21 -6q19 -8 26.5 -17.5t11 -37.5t3.5 -92
q0 -69 -1 -116v-64q0 -192 7 -304q9 -155 9 -196q0 -33 -4 -43.5t-16 -21.5q-19 -18 -39 -18q-15 0 -33 13q-17 14 -23.5 40t-9.5 99q-2 26 -4 81t-3 69l-4 64l-88 3l-86 2l-54 26q-46 24 -81.5 57t-44.5 63q-11 38 -11 141q0 59 4 100q8 81 15.5 113t24.5 51z" />
    <glyph glyph-name="afii10042" unicode="&#x428;" horiz-adv-x="766" 
d="M386 728q17 20 42 20q23 0 40 -17q16 -15 16 -55q0 -26 -10 -104q-32 -241 -39 -438l-4 -116l64 -1q35 -1 78 -1h1q6 0 10.5 5t8 21t5.5 40t3.5 67.5t2 98t0.5 136.5v285l16 20q18 21 43 21q37 0 52 -36q10 -23 10 -290q0 -290 -11 -365q-9 -57 -17.5 -79t-26.5 -34
q-11 -7 -46.5 -9t-193.5 -4q-230 -2 -235 -2q-40 0 -60 1.5t-25.5 3t-14.5 6.5q-26 15 -35.5 41.5t-14.5 95.5q-4 48 -4 185q0 155 4.5 310.5t10.5 167.5q20 37 54 37q19 0 35 -13l18 -16v-343q0 -115 0.5 -180t1.5 -103.5t3 -51t5 -14.5q9 -6 61 -6q40 0 57 4l19 3l5 115
q7 186 35 422q14 114 18.5 135.5t17.5 36.5z" />
    <glyph glyph-name="afii10043" unicode="&#x429;" horiz-adv-x="978" 
d="M69 715q18 19 43 19q24 0 40 -17l16 -16l-4 -118q-3 -99 -3 -187q0 -154 9 -299q7 -138 10 -141q2 -2 84 -6l82 -3l-3 63v21q0 69 5 149q9 126 15 273q7 132 13.5 162.5t32.5 41.5q13 6 26 6q32 0 49 -33q6 -12 6 -58q0 -70 -18 -320q-10 -120 -10 -219v-91h151l4 43
q4 34 10 204q5 141 15 284t16 167t23.5 38.5t38.5 14.5q14 0 26 -6q17 -9 23.5 -22.5t6.5 -41.5q0 -20 -3 -53q-22 -209 -29 -457q-4 -125 -7 -150l-4 -27h82q59 0 73 -2.5t26 -13.5q17 -16 17 -40q0 -47 -58 -59q-12 -2 -72 -2q-321 0 -583 13q-88 5 -115 22t-39 75
q-8 46 -15 193t-7 289v25q1 177 5.5 218.5t21.5 60.5z" />
    <glyph glyph-name="afii10044" unicode="&#x42a;" horiz-adv-x="752" 
d="M493 246q-36 10 -106 10q-79 0 -91 -12q-4 -4 -8.5 -84t-4.5 -137v-22l2 -62l35 -2h5q35 0 107.5 14.5t98.5 25.5q25 12 41 49t16 80q0 18 -3 36q-7 36 -38 67t-54 37zM67 742l21 19l70 -5q59 -4 85.5 -13.5t41.5 -32.5q12 -17 12 -70q0 -9 -2 -109l-3 -160l47 4
q22 2 38 2q104 0 167 -24q33 -12 78.5 -53t61.5 -74q26 -52 26 -113q0 -29 -6 -59q-10 -53 -24.5 -84t-40.5 -59q-28 -30 -68.5 -48t-114.5 -33q-67 -14 -110 -14q-23 0 -36 1q-56 2 -83.5 10t-45.5 28q-12 12 -16.5 29.5t-4.5 56.5q0 13 2 83q2 40 9 359l5 248l-46 5
q-44 5 -63.5 19t-19.5 42q0 26 20 45z" />
    <glyph glyph-name="afii10045" unicode="&#x42b;" horiz-adv-x="898" 
d="M754 733q14 14 41 14q16 0 24 -4t19 -17q15 -16 15 -31q0 -7 -1 -11q-4 -27 -11.5 -134.5t-10.5 -132.5q-5 -52 -12.5 -211t-11.5 -213q-2 -25 -4 -52.5t-3.5 -43t-1.5 -16.5q0 -7 -16 -27t-41 -20q-22 0 -38.5 12.5t-20.5 30.5q0 1 -0.5 5t-0.5 7q0 29 7 110
q12 167 15 276q5 171 9 180q5 12 10 117q5 83 11 112.5t22 48.5zM304 221q-22 6 -75 6t-56 -6q-8 -11 -8 -215q0 -76 3 -78q1 -1 7 -1q19 0 55 6q168 24 168 145q0 51 -26.5 91.5t-67.5 51.5zM98 740q16 13 33 13q21 0 40 -19l19 -19l-4 -78q-8 -109 -10 -131
q-6 -60 -6 -106v-52h66q64 0 104.5 -12.5t79.5 -43.5q24 -19 37 -36t30 -50q19 -37 23.5 -54t6.5 -60q0 -6 0.5 -15.5t0.5 -13.5q0 -36 -8.5 -60.5t-32.5 -61.5q-37 -55 -96.5 -86t-154.5 -45l-75 -10l-41 20q-32 16 -44 31.5t-19 49.5q-5 21 -5 168q0 319 13 480
q11 141 19 160q7 17 24 31z" />
    <glyph glyph-name="afii10046" unicode="&#x42c;" horiz-adv-x="671" 
d="M413 214q-48 10 -77 10q-34 0 -90 -12l-70 -15l1 -126q2 -132 4 -138q4 -10 78 -10q52 0 70 3t49 16q95 40 116 73q14 22 14 78q0 45 -10 64q-24 45 -85 57zM78 776q20 9 24 9q11 0 29 -11t23 -21q6 -12 11 -222q4 -194 9 -205q2 -4 8 -4q11 0 80 13q52 10 78 10
q37 0 109 -18q88 -22 134 -80t46 -146q0 -98 -33.5 -152t-120.5 -95q-69 -33 -99.5 -42t-79.5 -9q-30 0 -49 1q-78 2 -107.5 10t-53.5 34q-20 22 -26 105t-14 467q-4 161 -4 240q0 66 9 86q10 23 27 30z" />
    <glyph glyph-name="afii10047" unicode="&#x42d;" horiz-adv-x="682" 
d="M148 772q27 13 87 13q61 0 128.5 -13.5t107.5 -35.5q35 -21 74 -63q38 -40 52.5 -73t30.5 -116q12 -64 12 -121q0 -36 -1 -60q-4 -105 -19 -161q-25 -85 -62 -138.5t-100 -94.5q-83 -54 -195 -60q-11 -1 -32 -1q-59 0 -135 31q-50 22 -50 62q0 22 18 40t38 18
q17 0 60 -16q41 -16 86 -16q72 0 135.5 38.5t95.5 103.5q15 32 27.5 80.5t14.5 85.5l3 38l-35 2h-14q-46 0 -129 -5q-52 -4 -91 -4q-36 0 -53.5 6t-28.5 21q-13 16 -13 33q0 19 15 37q12 14 31 17q30 6 218 14q20 1 44 2t35 2l11 1q0 11 -11.5 59t-16.5 57q-8 16 -36 42.5
t-47 36.5q-58 29 -173 29h-17l-74 -2l-15 18q-16 17 -16 39q0 37 40 54z" />
    <glyph glyph-name="afii10048" unicode="&#x42e;" horiz-adv-x="1095" 
d="M787 591q-30 15 -49 15q-21 0 -59 -16q-54 -23 -122.5 -96.5t-84.5 -125.5q-8 -26 -12 -90q0 -4 -0.5 -12.5t-0.5 -12.5q0 -90 44 -178q27 -52 78 -81t112 -29q44 0 83 14q47 16 71.5 43.5t47.5 87.5q37 98 37 181q0 87 -41 184q-20 46 -42 71t-62 45zM668 716
q32 10 73 12q93 0 189 -96q32 -31 43 -49t31 -70q49 -124 49 -219q0 -46 -9 -105q-7 -43 -28 -105.5t-38 -90.5q-15 -24 -51.5 -59t-57.5 -46q-50 -25 -134 -41q-19 -4 -44 -4q-114 0 -218 79q-42 31 -75.5 97.5t-51.5 152.5q-8 46 -11 46q-6 0 -81 -11.5t-87 -14.5
q-8 -3 -8 -143v-140l-22 -22q-20 -20 -31 -20q-2 0 -12 2q-21 6 -36 19l-16 16l-2 205v93q0 178 3 286q3 111 6 145t11 46q18 27 48 27q29 0 47 -25q9 -12 11.5 -29.5t2.5 -77.5q0 -97 -5 -174l-6 -84h18q24 0 94.5 14t73.5 19q2 3 8 35q6 43 49.5 108t105.5 123
q73 69 161 101z" />
    <glyph glyph-name="afii10049" unicode="&#x42f;" horiz-adv-x="748" 
d="M521 697q-18 7 -106 9h-32q-65 0 -98.5 -11.5t-66.5 -45.5q-53 -52 -53 -130q0 -25 4.5 -35t24.5 -36q25 -31 50.5 -46t68.5 -22q40 -7 110 -7q78 0 112 8l32 8l2 31v11q0 41 -9.5 134t-14.5 108q-5 16 -24 24zM307 825q13 4 65 4q59 0 121 -6q81 -9 115 -32t51 -81
q21 -70 31 -356q3 -109 13 -286q3 -52 3 -90q0 -93 -26 -125q-17 -20 -39 -20t-42 20q-6 7 -8 9.5t-5 8t-3.5 13t-0.5 19.5q0 4 0.5 16.5t0.5 20.5v24q0 57 -4 173l-5 129l-19 -3q-20 -4 -90 -9q-69 -4 -77 -14q-18 -27 -63 -117q-58 -116 -109 -203.5t-69 -104.5
q-22 -18 -41 -18t-37 18q-19 19 -19 39q0 24 28 67q43 68 112.5 200t69.5 145q0 4 -18 9q-45 11 -99.5 55.5t-78.5 89.5q-20 40 -20 100q0 46 12 85q17 54 54 103.5t80 74.5q46 25 117 42z" />
    <glyph glyph-name="afii10065" unicode="&#x430;" horiz-adv-x="550" 
d="M302 307q0 6 -13.5 42.5t-18.5 36.5q-4 0 -17.5 -40t-13.5 -50q0 -5 12 -5q15 0 33 5.5t18 10.5zM235 566q24 8 42 8q50 0 75 -64q7 -22 34 -83t35 -86q18 -56 48 -133q38 -95 38 -129q0 -24 -17 -39q-18 -15 -39 -15q-20 0 -37 13t-24 36q-6 18 -22 61.5t-18 45.5h-3
q-16 0 -83 -11.5t-70 -15.5q-4 -4 -16 -41q-10 -32 -24 -58q-18 -35 -53 -35q-23 0 -40 17t-17 38q0 18 16 69q122 381 136 398q16 16 39 24z" />
    <glyph glyph-name="afii10066" unicode="&#x431;" horiz-adv-x="454" 
d="M268 215q-24 24 -51 24q-17 0 -40 -4l-18 -2v-60q0 -44 2.5 -52.5t14.5 -11.5q1 0 3 -0.5t4 -0.5q17 0 47.5 9t47.5 19q15 10 15 29q0 25 -25 50zM191 563q32 4 73 4h17q39 -1 49.5 -4t22.5 -15q15 -18 15 -39q0 -18 -10.5 -32.5t-28.5 -20.5q-19 -7 -48 -7q-28 0 -72 -7
l-43 -8v-80l34 4q7 1 21 1q60 0 116 -41q37 -28 54.5 -62t19.5 -86q0 -4 0.5 -11.5t0.5 -10.5q0 -27 -17 -60t-40.5 -49t-83.5 -35q-55 -17 -75 -17q-5 0 -45 4l-36 4.5t-26 8t-19.5 10.5t-12.5 20.5t-9 28.5t-4 43t-2 56.5v77.5q0 162 5 211t24 71q15 16 35.5 23t84.5 18z
" />
    <glyph glyph-name="afii10067" unicode="&#x432;" horiz-adv-x="409" 
d="M227 218q-14 15 -38 15h-22v-109l27 4q28 6 38 17q11 14 11 33q0 24 -16 40zM221 420q-10 9 -19 9q-10 0 -10 -10q0 -18 -4 -35l-4 -24l21 1q15 2 19 5.5t5 19.5v6q0 18 -8 28zM127 552q20 16 45 16q24 0 63 -16q71 -29 104 -92q14 -25 14 -68t-14 -72l-13 -30l15 -24
q27 -41 27 -99q0 -7 -2 -21q-3 -22 -28 -59.5t-46 -51.5q-17 -11 -55 -20.5t-67 -9.5q-43 1 -79.5 24.5t-44.5 55.5q-4 20 -4 45q0 63 18 212q9 72 13 100.5t12 54t16 33.5t26 22z" />
    <glyph glyph-name="afii10068" unicode="&#x433;" horiz-adv-x="429" 
d="M271 543q3 3 40 3q25 0 34.5 -3t21.5 -15q18 -18 18 -40q0 -34 -36 -52q-17 -10 -105 -17l-87 -7l4 -55q0 -7 8 -175l4 -120l-19 -20q-20 -20 -44 -20q-32 0 -48 31q-7 14 -13.5 126.5t-6.5 222.5v87l19 19q18 19 43.5 24.5t91.5 6.5q71 0 75 4z" />
    <glyph glyph-name="afii10069" unicode="&#x434;" horiz-adv-x="734" 
d="M407 346q-13 42 -19 42q-4 0 -13.5 -20t-22 -52t-23.5 -62.5t-22 -62t-14 -40.5q-11 -30 -11 -40q0 -4 2 -6q4 -4 38 -4q10 0 52 2l83 3l-4 23q-29 159 -46 217zM366 543q19 9 39 9q33 0 52 -27q9 -12 32.5 -65.5t33.5 -82.5q21 -65 45 -204l10 -61l38 -4q33 -4 53 -20.5
t20 -38.5q0 -12 -6 -24q-14 -29 -54 -35t-254 -9q-156 -2 -178 -2q-80 0 -104.5 5t-35.5 21q-10 17 -10 31q0 25 22 47q14 14 23 18t30 4h31l8 33q6 26 21 61q12 28 34 95q31 97 72.5 165t77.5 84z" />
    <glyph glyph-name="afii10070" unicode="&#x435;" horiz-adv-x="484" 
d="M217 555q66 9 99 9q21 0 53 -5q70 -11 70 -58q0 -12 -6 -27q-10 -24 -30 -30.5t-84 -7.5q-125 -1 -131 -22q-4 -13 -6 -41l-1 -32h63q61 0 77 -8q38 -21 38 -61q0 -22 -14 -39q-11 -13 -23 -15.5t-70 -4.5q-78 -2 -80 -4q-2 -1 -6 -33l-3 -29l73 5q23 2 59 2q65 0 91 -22
q20 -17 20 -41t-19 -43l-17 -17l-131 -5q-74 -2 -87 -2q-43 0 -59 6t-35 27q-15 16 -15 49q0 4 0.5 16.5t0.5 21.5q2 83 11.5 191t17.5 133q7 25 27.5 47.5t40.5 27.5q12 4 76 12z" />
    <glyph glyph-name="afii10072" unicode="&#x436;" horiz-adv-x="831" 
d="M665 523q29 26 57 26q25 0 47 -23q18 -20 18 -35q0 -20 -32 -52q-34 -34 -59 -85q-18 -37 -22.5 -55.5t-6.5 -61.5q-2 -34 -2 -38v-8.5t1.5 -7.5t2.5 -6.5t4 -6.5t5 -6.5t7.5 -7.5t8.5 -8t11.5 -10.5t13.5 -12.5q23 -20 23 -44q-1 -36 -30 -51q-13 -7 -27 -7
q-21 0 -50 18q-44 27 -62.5 58t-24.5 84l-5 38h-75q0 -31 2 -92t2 -91l-17 -21q-17 -20 -42 -20q-37 0 -52.5 36t-15.5 122v63h-41q-41 0 -41 -9q0 -13 -26.5 -59t-46.5 -69q-45 -50 -91 -50q-29 0 -45 25q-10 18 -10 30q0 25 42 63q37 35 50 64t13 78q0 94 -47 126
q-34 24 -44.5 37t-10.5 32q0 24 20 43q19 16 34 16q9 0 15 -1q37 -4 79 -47t58 -93q18 -56 24 -61q5 -5 22 -5h11h35l-1 74v14q0 52 7 73t26 32q18 8 28 8q17 0 35 -17q15 -13 18 -24.5t7 -65.5q5 -65 5 -80q1 -7 32 -7h14l44 2l16 38q14 33 42 76t47 62z" />
    <glyph glyph-name="afii10073" unicode="&#x437;" horiz-adv-x="445" 
d="M212 574q21 7 46 7q40 0 74.5 -19.5t52.5 -53.5q18 -35 18 -71q0 -39 -22 -82q-16 -33 -16 -41t7 -16q30 -42 30 -97q0 -79 -54 -127q-32 -27 -61 -37.5t-75 -10.5q-37 0 -52.5 3.5t-45.5 18.5q-70 35 -70 77q0 21 21 41q14 13 33 13q20 0 59 -18q38 -18 61 -18
q27 0 51 25q12 12 12 29q0 19 -15 32.5t-38 13.5q-43 0 -61 32q-11 19 -11 33q0 34 60 61q65 29 65 65q0 12 -3.5 16t-19.5 4q-2 0 -11 -0.5t-14 -0.5t-13 -0.5t-11 -0.5q-15 0 -22 3t-18 15q-18 18 -18 39t16 38t45 27z" />
    <glyph glyph-name="afii10074" unicode="&#x438;" horiz-adv-x="526" 
d="M373 547q24 11 28 11q5 0 22 -6q38 -13 38 -83q0 -43 7 -109q16 -188 16 -240q0 -24 -4 -38q-14 -41 -55 -41q-25 0 -42 20q-16 20 -16 30q0 30 -8 122t-11 95h-1q-6 0 -33 -41q-46 -72 -98.5 -142t-68.5 -80q-13 -8 -30 -8q-32 0 -50 28q-14 20 -18 67t-5 208l-2 176
l19 15q18 15 42 15q13 0 25 -6q18 -10 24 -38.5t10 -116.5l4 -113l15 19q36 49 58 85q26 41 53 77t39 53q18 30 42 41z" />
    <glyph glyph-name="afii10075" unicode="&#x439;" horiz-adv-x="553" 
d="M357 484q44 44 56 53t30 9q17 0 25 -4t21 -19q19 -22 19 -41q0 -4 -2 -32q-1 -9 -1 -44q0 -78 4 -149q3 -72 3 -112q0 -45 -5 -65t-18 -33q-12 -12 -39 -12q-23 0 -33 10q-17 16 -21.5 41.5t-7.5 117.5q-4 124 -7 124q-5 0 -65 -69.5t-96 -117.5q-40 -55 -62 -75t-42 -20
q-11 0 -22 4q-25 7 -39 29q-13 20 -13 49q0 8 1 35.5t2 48.5q11 272 20 288q15 29 51 29q32 0 48 -25q10 -16 10 -65q0 -33 -1 -55q0 -15 -0.5 -39.5t-0.5 -32.5q0 -31 2 -31t64 71q72 84 119 132zM326 678q16 6 38 6h5q18 0 34 -19q17 -20 17 -38q0 -20 -20 -38
q-82 -75 -114 -75q-25 0 -40.5 16t-15.5 40q0 19 10 38q7 14 36.5 37.5t49.5 32.5z" />
    <glyph glyph-name="afii10076" unicode="&#x43a;" horiz-adv-x="463" 
d="M89 543q11 7 29 7q29 0 45 -16q11 -10 13.5 -22t2.5 -55l1 -62l72 75q51 53 65 63.5t31 10.5q26 0 42.5 -17t16.5 -45q0 -19 -11 -33.5t-65 -71.5q-76 -80 -76 -87q0 -6 82 -88q59 -59 71 -74t12 -34q0 -26 -16 -41.5t-42 -15.5q-16 0 -30 9t-54 46q-59 52 -86 83l-25 30
l-1 -35q-2 -111 -24 -135q-18 -19 -43 -19q-15 0 -25 5q-19 8 -25.5 22.5t-6.5 57.5q0 12 4 108q9 182 12 221q3 59 9 81.5t22 31.5z" />
    <glyph glyph-name="afii10077" unicode="&#x43b;" horiz-adv-x="481" 
d="M256 515q21 23 45 23q20 0 41 -18q13 -12 19 -30t19 -82q9 -43 29 -159q9 -60 22 -110q8 -32 8 -46q0 -22 -22 -43q-13 -13 -34 -13q-23 0 -40 16q-16 13 -27 47t-25 117q-13 79 -15 79q-4 0 -67 -128q-64 -131 -76 -137q-13 -7 -27 -7q-25 0 -44 19q-17 18 -17 33
q0 10 1 16q3 28 95 213.5t115 209.5z" />
    <glyph glyph-name="afii10078" unicode="&#x43c;" horiz-adv-x="642" 
d="M482 532q15 11 34 11q34 0 53 -37q9 -16 9 -61q0 -55 6 -113q16 -183 16 -224q0 -28 -6 -42q-15 -35 -56 -35q-19 0 -33.5 13.5t-21.5 37.5q-5 16 -13 129q-5 106 -12 113q-1 1 -2 1q-7 0 -36 -37q-27 -34 -46.5 -47.5t-42.5 -13.5q-45 0 -80 57q-20 33 -26 33l-2 -2
q-5 -8 -26 -89t-34 -143q-3 -12 -20 -33q-15 -19 -43 -19q-22 0 -33.5 8t-19.5 30q-2 10 -2 17q0 19 7 53q30 136 66.5 246t58.5 127t39 17q13 0 31 -9q15 -8 24.5 -20.5t28.5 -48.5q31 -61 33 -63q1 -1 3 -1q8 0 75 75q51 58 71 70z" />
    <glyph glyph-name="afii10079" unicode="&#x43d;" horiz-adv-x="501" 
d="M359 538q19 18 39 18q14 0 29 -10q24 -16 28.5 -50t4.5 -196v-201l-18 -18q-20 -19 -43 -19q-37 0 -50.5 35t-14.5 130q-1 29 -2 36.5t-6 7.5q-1 0 -9 -2q-11 -3 -58.5 -7.5t-56.5 -6.5l-22 -3q2 -33 5 -101t5 -101l-20 -19q-19 -19 -40 -19q-16 0 -30 10
q-23 16 -30.5 64.5t-21.5 277.5q-4 78 -4 91q0 36 5.5 53t19.5 26q13 9 32 9q22 0 39 -14q11 -10 15.5 -23.5t10.5 -56.5q2 -16 4 -33t4 -26l1 -9q0 -2 17 -2q49 0 99 8l49 7v63v15q0 35 2.5 44.5t16.5 21.5z" />
    <glyph glyph-name="afii10080" unicode="&#x43e;" horiz-adv-x="556" 
d="M337 413q-34 21 -57 21q-35 0 -80 -64q-21 -31 -29 -81q-5 -32 -5 -45q0 -33 33 -59q24 -17 65 -20q9 -1 22 -1q21 0 50 20q32 22 46 47.5t14 65.5v14q-2 43 -13.5 62.5t-45.5 39.5zM230 548q27 7 54 7q57 0 120 -39q65 -41 93 -99q12 -24 14.5 -41t2.5 -70
q0 -77 -15 -114q-15 -38 -50.5 -73t-80.5 -57q-44 -21 -88 -21q-105 2 -166 56q-26 23 -45.5 54t-23.5 58q-1 5 -1 17q0 70 24 149q18 57 66 108t96 65z" />
    <glyph glyph-name="afii10081" unicode="&#x43f;" horiz-adv-x="473" 
d="M111 526h7.5t17 0.5t21.5 0.5t42.5 -0.5t50.5 -0.5q89 -2 111.5 -4t36.5 -12q20 -15 27 -32q6 -18 6 -135q0 -98 -4 -178q-3 -63 -5.5 -79.5t-12.5 -26.5q-15 -16 -36 -16t-39 15t-23 39q-3 12 -3 87q0 51 1 79l4 142h-139l-4 -87q-4 -64 -4 -138q-1 -88 -26 -115
q-16 -16 -38 -16q-23 0 -42 16l-18 15l2 95q6 277 22 309q18 37 45 42z" />
    <glyph glyph-name="afii10082" unicode="&#x440;" horiz-adv-x="435" 
d="M255 436q-13 6 -30 6q-32 0 -46 -17q-9 -13 -9 -29q0 -8 0.5 -10.5t3.5 -4.5t9 -2q11 0 19 1q25 2 47.5 15.5t22.5 25.5q0 9 -17 15zM163 554q40 8 67 8q62 0 112 -38q28 -22 39 -44t11 -56q0 -67 -57 -115.5t-136 -49.5h-26l-7 -84q-6 -69 -15.5 -91.5t-35.5 -29.5
q-10 -2 -14 -2q-12 0 -27 9q-32 18 -32 68q0 22 2 35q3 26 3 67q0 26 -1 37q-1 9 -1 31q0 52 6.5 109.5t14.5 72.5q8 16 35 41q27 26 62 32z" />
    <glyph glyph-name="afii10083" unicode="&#x441;" horiz-adv-x="485" 
d="M192 510q35 15 76 15q66 0 101 -32q12 -12 16 -20t4 -24q0 -27 -19 -43q-16 -13 -30 -13q-10 0 -63 8q-6 1 -17 1q-67 0 -87 -110q-7 -32 -7 -57q0 -38 28 -66q24 -24 30 -24q40 0 93 47q42 34 55 37q3 1 10 1q17 0 32 -9.5t22 -24.5q6 -14 6 -25q0 -33 -55 -79
q-72 -58 -141 -66q-22 -2 -29 -2q-26 0 -45.5 9t-46.5 33q-35 31 -49.5 51.5t-23.5 53.5q-8 34 -8 58q0 33 10 84q15 87 43.5 127.5t94.5 69.5z" />
    <glyph glyph-name="afii10084" unicode="&#x442;" horiz-adv-x="444" 
d="M77 543q8 4 152 4h140l16 -18q15 -17 15 -41q0 -13 -7 -27q-16 -25 -74 -34q-34 -5 -36 -18q-11 -49 -16 -220q-3 -107 -9 -136t-29 -46q-8 -7 -30 -7q-25 0 -38 9q-10 7 -18 25.5t-8 33.5q0 6 1 9q2 5 9.5 166t8.5 165q2 8 -2.5 10.5t-17.5 3.5q-28 2 -41 6.5t-28 17.5
q-20 17 -20 40q0 19 9.5 36t22.5 21z" />
    <glyph glyph-name="afii10085" unicode="&#x443;" horiz-adv-x="453" 
d="M338 558q4 1 11 1q23 0 42 -17q18 -16 18 -37q0 -22 -19 -67q-22 -51 -51 -132q-79 -220 -98 -251q-14 -24 -36 -26h-12q-18 0 -26 2.5t-15 12.5q-15 19 -15 37q0 22 26 99q27 74 27 90q0 5 -3 8q-9 7 -9 15q0 6 -17 23q-17 15 -55 66.5t-49 73.5q-12 24 -12 43
q0 36 37 51q13 5 23 5q31 0 71 -61q53 -80 68 -80q2 0 3 1q3 3 26 58q32 81 65 85z" />
    <glyph glyph-name="afii10086" unicode="&#x444;" horiz-adv-x="578" 
d="M243 369q0 33 -2.5 44t-10.5 11q-6 0 -29 -10q-34 -14 -34 -56q0 -19 10 -27.5t40 -12.5l26 -4v55zM408 418q-6 12 -25 12h-19v-51q0 -51 11 -51q5 0 23 16q17 15 17 44q0 17 -7 30zM278 558q34 4 51 4q24 0 56 -5q150 -24 150 -182q0 -60 -38.5 -104t-110.5 -66l-26 -8
l2 -34q0 -5 0.5 -13t0.5 -12q0 -114 -61 -114q-18 0 -34 7q-30 17 -30 61q0 2 0.5 5.5t0.5 5.5q0 4 0.5 13.5t0.5 14.5q0 21 -2 30l-4 31l-34 5q-155 23 -155 166q0 48 25.5 91.5t64.5 63.5q18 9 68 23t75 17z" />
    <glyph glyph-name="afii10087" unicode="&#x445;" horiz-adv-x="516" 
d="M44 500q3 21 19 35.5t39 14.5q42 0 114 -100q34 -45 38 -45q5 0 34 40q61 92 102 92q20 0 39 -18q21 -19 21 -37q0 -23 -39 -74q-41 -54 -62 -87l-24 -36l20 -26q20 -25 60 -60q67 -61 67 -99q0 -20 -18 -38q-20 -20 -41 -20q-23 0 -45 22q-42 42 -68 67l-47 45l-37 -55
q-40 -59 -65.5 -83t-47.5 -24q-11 0 -24 5q-15 6 -25.5 23.5t-10.5 33.5q0 6 1 9q3 13 29 46q24 29 66 96l41 63l-22 33q-42 58 -55 74q-38 47 -49 63.5t-11 28.5q0 7 1 11z" />
    <glyph glyph-name="afii10088" unicode="&#x446;" horiz-adv-x="562" 
d="M67 529q15 15 37 15q23 0 33.5 -5t20.5 -22q9 -14 9 -50q0 -42 -4 -137q-4 -110 -4 -141q0 -32 2 -40q3 -12 9.5 -14.5t37.5 -2.5h44l3 77q5 70 5 175q0 79 6 107.5t26 42.5q13 10 29 10q21 0 41 -20l20 -19q-1 -59 -3 -178.5t-3 -179.5l54 -4q38 -2 48.5 -6t23.5 -18
q16 -17 16 -32q0 -7 -1 -11q-4 -27 -25 -39t-72 -16t-170 -5h-46q-85 0 -112 12q-26 12 -38 38q-8 15 -10 36t-2 91v75q1 156 5.5 201t19.5 60z" />
    <glyph glyph-name="afii10089" unicode="&#x447;" horiz-adv-x="440" 
d="M87 548q20 14 27 14q6 0 23 -6q21 -7 28.5 -22.5t7.5 -55.5q0 -22 -1 -36q-1 -18 -1 -43q0 -32 10 -40t48 -10l40 -3l3 78q3 79 17 106t52 27q19 0 38 -19l19 -19l-3 -84q-2 -32 -6.5 -87t-7 -98t-2.5 -86t-3 -55.5t-14 -26.5q-16 -21 -44 -21q-24 0 -41 18
q-10 12 -13.5 25.5t-5.5 54.5l-3 65l-42 4q-40 3 -84 24t-59 44q-26 38 -26 114q0 17 1 26q5 87 42 112z" />
    <glyph glyph-name="afii10090" unicode="&#x448;" horiz-adv-x="609" 
d="M63 526q20 20 41 20q20 0 39 -18l18 -19v-147q0 -144 4 -180l4 -33h60l-3 48q-1 9 -1 35q0 70 7.5 167t14.5 110q15 31 48 31q24 0 44 -20l19 -19l-5 -115q-2 -40 -6 -171q0 -42 2 -50t13 -9q1 0 6 -0.5t8 -0.5q18 0 34 3l33 4l4 48q1 9 1 43q0 61 -3 126q-4 90 -4 92
q0 31 9 43q16 21 44 21q33 0 52 -28q10 -14 13 -35t6 -96q2 -60 2 -88q0 -182 -24 -217q-16 -22 -35 -28q-35 -11 -279 -11h-40q-57 1 -81 9t-43 33q-24 30 -24 227q0 10 0.5 32t0.5 34l2 140z" />
    <glyph glyph-name="afii10091" unicode="&#x449;" horiz-adv-x="743" 
d="M487 559q15 5 25 5q33 0 52 -36q6 -12 6 -40q0 -22 -3 -71q-1 -25 -4.5 -93.5t-5.5 -94.5l-4 -94l45 5q9 1 26 1q50 0 66 -31q9 -16 9 -29q0 -16 -16 -33q-18 -19 -59 -25q-39 -5 -166 -10t-218 -5q-50 0 -65 1q-62 3 -83 12.5t-38 42.5q-12 23 -12 104q0 70 1 126
q2 203 13 227q17 34 55 34q15 0 25 -5q33 -14 33 -51q0 -12 -1 -19q-4 -36 -4 -189l-1 -158q8 -1 24.5 -2t24.5 -2l1 78q1 105 7.5 198t14.5 108q19 36 51 36q12 0 26 -6q20 -9 27 -24t7 -56q0 -14 -4 -96q-8 -138 -8 -182v-55h37h6q44 0 51 8t8 57q0 43 8 191
q6 106 13 134.5t30 38.5z" />
    <glyph glyph-name="afii10092" unicode="&#x44a;" horiz-adv-x="538" 
d="M350 209q-16 9 -45 9h-28l-5 -29q-3 -24 -3 -63v-34h21q36 0 61 21t25 51q0 32 -26 45zM75 559q17 10 41 10q5 0 45 -2q76 -5 99.5 -22t23.5 -72q0 -11 -2 -49q-4 -43 -4 -73v-7q2 -3 49 -7q45 -3 73 -17q29 -15 56 -43t33 -50q7 -24 7 -54q0 -86 -50 -138
q-26 -27 -68.5 -46t-77.5 -19h-2q-38 0 -76.5 14t-54.5 33q-22 25 -22 74q0 32 4 73q6 97 8 182l3 99h-28q-39 0 -62.5 17t-23.5 43q0 9 3 18q6 24 26 36z" />
    <glyph glyph-name="afii10093" unicode="&#x44b;" horiz-adv-x="666" 
d="M538 552q12 6 25 6q29 0 50 -27q10 -11 10 -93v-43q0 -102 -8 -223t-15 -136q-18 -32 -57 -32q-17 0 -30 9q-25 17 -25 61q0 11 4 63q8 90 10 225q2 120 7.5 149.5t28.5 40.5zM248 194q-6 6 -39 15t-47 9q-4 0 -4 -28q0 -49 7 -58q8 -5 33 -7q6 -1 15 -1q15 0 29 14
q16 16 16 34q0 13 -10 22zM94 564q9 3 19 3q25 0 44 -19q10 -9 12.5 -17.5t2.5 -36.5q0 -33 -1 -58l-2 -97l37 -7q94 -19 123 -47q49 -48 49 -115q0 -47 -26 -88.5t-72 -62.5q-32 -15 -69 -15q-34 0 -76 12q-44 13 -61.5 27t-24.5 44t-7 98v20q0 95 6 209q5 86 13.5 114
t32.5 36z" />
    <glyph glyph-name="afii10094" unicode="&#x44c;" horiz-adv-x="466" 
d="M288 207q-13 11 -49 11q-31 0 -51 -9q-15 -6 -18 -12.5t-3 -32.5q0 -35 10 -39q3 -1 12 -1q23 0 57 7.5t42 14.5q11 10 11 31q0 22 -11 30zM100 559q12 4 19 4q25 0 42 -15q23 -22 23 -62q0 -10 -4 -56q-6 -57 -6 -75q0 -19 10 -19q6 0 20 3q17 3 34 3q35 0 82 -14
q30 -10 58 -42q45 -50 45 -106q0 -42 -26 -86q-28 -48 -73 -67.5t-126 -19.5q-44 0 -61 2.5t-37 11.5q-34 17 -46 42t-12 91q0 38 5 121q4 66 6.5 105t6 73t6.5 50.5t8.5 29.5t11 17.5t14.5 8.5z" />
    <glyph glyph-name="afii10095" unicode="&#x44d;" horiz-adv-x="457" 
d="M143 552q15 6 40 6q55 0 101 -23q32 -16 62 -46t46 -62q23 -44 23 -133q0 -59 -13 -104q-16 -51 -51 -91.5t-75 -53.5q-62 -19 -135 -19q-49 0 -69 10q-10 5 -18.5 22.5t-8.5 32.5q0 6 1 9q13 42 62 42q28 0 71 6.5t60 13.5q14 6 31.5 32t17.5 41q0 10 -3.5 12t-16.5 0
q-17 -3 -75 -7q-11 -1 -29 -1q-57 0 -70 35q-4 11 -4 23q0 31 33 48.5t92 17.5t59 15q0 8 -13 24q-30 37 -86 37q-21 0 -30 3.5t-21 14.5q-19 19 -19 35q0 17 11.5 35.5t26.5 24.5z" />
    <glyph glyph-name="afii10096" unicode="&#x44e;" horiz-adv-x="712" 
d="M518 416q-21 22 -39 22q-9 0 -18 -4q-37 -16 -75 -80t-38 -108q0 -34 35 -56t89 -22q21 0 29.5 3t19.5 15q29 35 30 123v11q0 36 -6.5 54.5t-26.5 41.5zM85 548q13 6 26 6q21 0 41 -18q15 -15 15 -40q0 -3 -0.5 -12.5t-0.5 -15.5v-22q0 -42 3 -60l4 -30q13 0 38.5 2
t38.5 2l19 35q82 153 202 162q8 1 24 1q42 0 70 -19t62 -68q24 -36 33.5 -67t9.5 -79v-9q0 -156 -70 -223q-44 -44 -120 -44q-17 0 -27 1q-105 6 -163 59q-23 23 -42.5 55.5t-19.5 50.5q0 9 -5 12.5t-23 6.5q-18 2 -24 2q-8 0 -10 -2q-5 -3 -5 -83q-1 -72 -10.5 -92.5
t-44.5 -22.5h-9q-21 0 -32.5 11t-18.5 37q-3 15 -3 91q0 101 4.5 218t10.5 129q8 17 27 26z" />
    <glyph glyph-name="afii10097" unicode="&#x44f;" horiz-adv-x="466" 
d="M300 426q-3 52 -5.5 63t-12.5 11q-17 0 -51.5 -25t-45.5 -45q-12 -22 -12 -39q0 -46 78 -46h3q41 0 47 4q1 1 1 20q0 34 -2 57zM225 609q25 11 58 11q45 0 83 -19q39 -20 48 -37q10 -18 11 -267v-250l-19 -17q-18 -17 -39 -17q-12 0 -27 6q-20 10 -26.5 30.5t-9.5 88.5
l-3 86l-16 -2q-17 -2 -26 -16q-5 -8 -45 -54q-30 -33 -46 -62q-9 -19 -26 -33t-32 -14q-27 0 -46.5 19.5t-19.5 46.5q0 22 69 116l15 21l-29 29q-49 51 -49 112q0 43 24 94q36 79 151 128z" />
    <glyph glyph-name="afii10071" unicode="&#x451;" horiz-adv-x="426" 
d="M143 564q23 3 59 3q105 0 134 -13q34 -14 34 -50q0 -26 -20 -46q-11 -11 -24 -13t-71 -2h-79v-22q0 -18 11.5 -22.5t73.5 -10.5q45 -4 63 -21q20 -18 20 -42q0 -22 -18 -40t-62 -18q-28 0 -63 4l-35 4l-1 -58l-2 -58l79 4q8 0 23.5 0.5t22.5 0.5q40 0 49 -3q20 -5 31 -21
t11 -35q0 -42 -40 -54q-17 -6 -109 -10q-24 -1 -55 -1q-37 0 -68 12q-36 15 -48.5 34t-14.5 64q0 3 -0.5 14t-0.5 18q0 77 7.5 198.5t14.5 136.5q16 39 78 47zM283 697q19 19 42 19q32 0 51 -33q6 -13 6 -26q0 -22 -15 -39t-37 -17q-39 0 -56 32q-9 17 -9 29q0 17 18 35z
M111 705q20 10 33 10q21 0 39 -18t18 -43q0 -37 -35 -63q-12 -9 -28 -9q-23 0 -43 17t-20 40q0 21 10 39.5t26 26.5z" />
    <glyph glyph-name="afii10101" unicode="&#x454;" horiz-adv-x="524" 
d="M249 557q30 11 64 11q48 0 81.5 -22t33.5 -54q0 -15 -7 -29q-17 -30 -47 -30q-16 0 -29 5q-14 5 -32 5q-60 0 -102 -55q-13 -18 -13 -25q0 -8 16 -8q13 0 32 4q17 3 29 3q61 0 61 -56q0 -64 -114 -71q-36 -2 -44 -4.5t-8 -12.5q0 -22 37 -62q11 -12 20 -15t34 -3
q67 0 113 33q28 19 50 19q24 0 40 -20q16 -17 16 -38q0 -33 -53 -71q-64 -45 -162 -45h-8q-51 0 -80 12.5t-61 48.5q-68 75 -72 143v12q0 37 10 87.5t23 79.5q25 54 70 96t102 62z" />
    <glyph glyph-name="afii10103" unicode="&#x456;" horiz-adv-x="213" 
d="M84 539q16 10 31 10q13 0 26 -9q18 -12 24 -29t6 -72q0 -14 -4 -152q-8 -222 -9 -228q-3 -19 -21 -30q-17 -10 -33 -10q-14 0 -31 9q-19 10 -25 27t-6 77q0 50 3 154q4 167 10 202.5t29 50.5z" />
    <glyph glyph-name="afii10104" unicode="&#x457;" horiz-adv-x="451" 
d="M200 493q14 6 25 6q19 0 38 -18q1 -1 5.5 -4.5t5 -4.5t3 -4.5t2.5 -6t1.5 -8t1.5 -12.5v-16q0 -46 -7 -186q-4 -80 -8 -112t-11.5 -45t-26.5 -19q-9 -3 -18 -3q-38 0 -54 38q-7 17 -7 62q0 33 3 108q7 146 11 168q7 46 36 57zM82 633q21 18 40 18t38 -16t19 -38
q0 -18 -7 -47t-23.5 -45.5t-37.5 -16.5q-26 0 -47 24q-17 18 -17 36q0 12 6 38q8 29 29 47zM307 645q14 13 36 13q21 0 39 -12.5t22 -31.5q1 -3 1 -10q0 -23 -13.5 -52t-29.5 -37q-14 -7 -29 -7q-24 0 -41.5 16.5t-17.5 42.5q0 21 9.5 44t23.5 34z" />
    <glyph glyph-name="afii10050" unicode="&#x490;" horiz-adv-x="621" 
d="M493 935q9 3 19 3q27 0 48 -19q8 -8 10.5 -18t2.5 -39v-29q-1 -63 -11.5 -88t-40.5 -41q-20 -10 -62.5 -15.5t-227.5 -19.5l-61 -5l-4 -391l-3 -393l-25 -22q-19 -19 -34 -19q-3 0 -13 2q-23 6 -37 20q-10 10 -12 66.5t-2 367.5q0 291 2 359.5t11 86.5q12 25 31 33.5
t81 16t224 19.5h5l52 4l4 40q6 67 43 81z" />
    <glyph glyph-name="afii10098" unicode="&#x491;" horiz-adv-x="479" 
d="M334 664q18 20 45 20q34 0 49 -30q6 -14 6 -57q0 -87 -15 -119q-9 -16 -21.5 -23t-38.5 -7q-9 0 -55 4q-68 7 -105 7h-34v-189q0 -133 -2.5 -165.5t-12.5 -48.5q-9 -14 -16.5 -18.5t-22.5 -4.5q-51 0 -60 35t-9 233q0 182 5.5 217t37.5 51q23 12 77 12q6 0 21.5 -0.5
t25.5 -0.5l99 -2l4 33q5 34 22 53z" />
  </font>
</defs>
</svg>
